<svg width="555" height="416" viewBox="0 0 555 416" fill="none" xmlns="http://www.w3.org/2000/svg">
<g clip-path="url(#clip0_515_583)">
<rect width="555" height="416" fill="white"/>
<g filter="url(#filter0_f_515_583)">
<path fill-rule="evenodd" clip-rule="evenodd" d="M281.853 125.256C325.9 122.024 371.384 149.634 380.799 192.622C388.742 228.888 345.98 250.103 312.968 267.314C294.923 276.721 275.723 267.553 258.841 256.204C238.933 242.819 215.336 228.028 219.478 204.46C225.9 167.916 244.714 127.982 281.853 125.256Z" fill="url(#paint0_angular_515_583)"/>
</g>
<g opacity="0.4" filter="url(#filter1_f_515_583)">
<path d="M167.84 197.681H163.182V381.704H167.84V197.681Z" fill="#3F3D56"/>
<path d="M210.837 221.133C211.134 285.481 165.862 337.855 165.862 337.855C165.862 337.855 120.109 285.9 119.812 221.552C119.515 157.204 164.788 104.83 164.788 104.83C164.788 104.83 210.541 156.785 210.837 221.133Z" fill="#ADD9AD"/>
<path d="M210.837 221.133C211.134 285.481 165.862 337.855 165.862 337.855C165.862 337.855 120.109 285.9 119.812 221.552C119.515 157.204 164.788 104.83 164.788 104.83C164.788 104.83 210.541 156.785 210.837 221.133Z" fill="url(#paint1_linear_515_583)" fill-opacity="0.8" style="mix-blend-mode:overlay"/>
<path d="M492.007 305.518H131.449V381.92H492.007V305.518Z" fill="#FFE8DB"/>
<path d="M119.936 313.89L159.184 231.731H472.644L501.949 313.89H119.936Z" fill="#F79C91"/>
<path d="M119.936 313.89L159.184 231.731H472.644L501.949 313.89H119.936Z" fill="url(#paint2_linear_515_583)" style="mix-blend-mode:overlay"/>
<path d="M363.274 236.965H217.795V285.109H363.274V236.965Z" fill="#FFE8DB"/>
<path d="M227.215 197.717L204.189 245.861H376.881L363.275 197.717H227.215Z" fill="#F79C91"/>
<path d="M227.215 197.717L204.189 245.861H376.881L363.275 197.717H227.215Z" fill="url(#paint3_linear_515_583)" style="mix-blend-mode:overlay"/>
<path d="M345.483 320.695H230.617V381.922H345.483V320.695Z" fill="#CCCCCC"/>
<path d="M206.805 322.788H145.578V381.921H206.805V322.788Z" fill="#CCCCCC"/>
<path d="M397.025 326.451H365.365V381.922H397.025V326.451Z" fill="#484848"/>
<path d="M515.443 382H39.4434V383H515.443V382Z" fill="#3F3D56"/>
<path d="M110.662 260.282H107.588V381.717H110.662V260.282Z" fill="#3F3D56"/>
<path d="M139.035 275.758C139.23 318.22 109.356 352.782 109.356 352.782C109.356 352.782 79.1634 318.497 78.9678 276.034C78.7721 233.572 108.647 199.01 108.647 199.01C108.647 199.01 138.839 233.295 139.035 275.758Z" fill="#5ABA47"/>
<path d="M139.035 275.758C139.23 318.22 109.356 352.782 109.356 352.782C109.356 352.782 79.1634 318.497 78.9678 276.034C78.7721 233.572 108.647 199.01 108.647 199.01C108.647 199.01 138.839 233.295 139.035 275.758Z" fill="#ADD9AD"/>
<path d="M139.035 275.758C139.23 318.22 109.356 352.782 109.356 352.782C109.356 352.782 79.1634 318.497 78.9678 276.034C78.7721 233.572 108.647 199.01 108.647 199.01C108.647 199.01 138.839 233.295 139.035 275.758Z" fill="url(#paint4_linear_515_583)" fill-opacity="0.8" style="mix-blend-mode:overlay"/>
<path d="M70.6954 260.282H67.6211V381.717H70.6954V260.282Z" fill="#3F3D56"/>
<path d="M99.0679 275.758C99.2637 318.22 69.3888 352.782 69.3888 352.782C69.3888 352.782 39.1966 318.497 39.001 276.034C38.8053 233.572 68.6801 199.01 68.6801 199.01C68.6801 199.01 98.8722 233.295 99.0679 275.758Z" fill="#ADD9AD"/>
<path d="M99.0679 275.758C99.2637 318.22 69.3888 352.782 69.3888 352.782C69.3888 352.782 39.1966 318.497 39.001 276.034C38.8053 233.572 68.6801 199.01 68.6801 199.01C68.6801 199.01 98.8722 233.295 99.0679 275.758Z" fill="url(#paint5_linear_515_583)" fill-opacity="0.8" style="mix-blend-mode:overlay"/>
<path d="M431.562 329.852H446.477V343.72H431.562V329.852Z" fill="white" stroke="black" stroke-width="0.523307"/>
<path d="M452.234 329.852H467.149V343.72H452.234V329.852Z" fill="white" stroke="black" stroke-width="0.523307"/>
<path d="M431.562 349.476H446.477V363.866H431.562V349.476Z" fill="white" stroke="black" stroke-width="0.523307"/>
<path d="M452.234 349.476H467.149V363.866H452.234V349.476Z" fill="white" stroke="black" stroke-width="0.523307"/>
<path d="M243.218 250.14H231.137V261.402H243.218V250.14Z" fill="#3F3D56"/>
<path d="M259.398 250.14H247.316V261.402H259.398V250.14Z" fill="#3F3D56"/>
<path d="M243.218 265.497H231.137V277.169H243.218V265.497Z" fill="#3F3D56"/>
<path d="M259.398 265.497H247.316V277.169H259.398V265.497Z" fill="#3F3D56"/>
<path d="M333.753 250.14H321.672V261.402H333.753V250.14Z" fill="#3F3D56"/>
<path d="M349.929 250.14H337.848V261.402H349.929V250.14Z" fill="#3F3D56"/>
<path d="M333.753 265.497H321.672V277.169H333.753V265.497Z" fill="#3F3D56"/>
<path d="M349.929 265.497H337.848V277.169H349.929V265.497Z" fill="#3F3D56"/>
<path d="M288.748 250.14H276.666V261.402H288.748V250.14Z" fill="#3F3D56"/>
<path d="M304.925 250.14H292.844V261.402H304.925V250.14Z" fill="#3F3D56"/>
<path d="M288.748 265.497H276.666V277.169H288.748V265.497Z" fill="#3F3D56"/>
<path d="M304.925 265.497H292.844V277.169H304.925V265.497Z" fill="#3F3D56"/>
<path d="M380.039 332.071H372.432V339.162H380.039V332.071Z" fill="#F2F2F2"/>
<path d="M390.222 332.071H382.615V339.162H390.222V332.071Z" fill="#F2F2F2"/>
<path d="M380.039 341.741H372.432V349.09H380.039V341.741Z" fill="#F2F2F2"/>
<path d="M390.222 341.741H382.615V349.09H390.222V341.741Z" fill="#F2F2F2"/>
<path d="M392.841 360.204C393.997 360.204 394.934 359.267 394.934 358.111C394.934 356.955 393.997 356.018 392.841 356.018C391.685 356.018 390.748 356.955 390.748 358.111C390.748 359.267 391.685 360.204 392.841 360.204Z" fill="#F2F2F2"/>
<path d="M345.745 327.236H230.617V328.282H345.745V327.236Z" fill="#F2F2F2"/>
<path d="M345.745 331.945H230.617V332.991H345.745V331.945Z" fill="#F2F2F2"/>
<path d="M345.745 336.654H230.617V337.7H345.745V336.654Z" fill="#F2F2F2"/>
<path d="M345.745 341.364H230.617V342.411H345.745V341.364Z" fill="#F2F2F2"/>
<path d="M345.745 346.074H230.617V347.121H345.745V346.074Z" fill="#F2F2F2"/>
<path d="M345.745 350.783H230.617V351.83H345.745V350.783Z" fill="#F2F2F2"/>
<path d="M345.745 355.495H230.617V356.541H345.745V355.495Z" fill="#F2F2F2"/>
<path d="M345.745 360.205H230.617V361.251H345.745V360.205Z" fill="#F2F2F2"/>
<path d="M345.745 364.914H230.617V365.96H345.745V364.914Z" fill="#F2F2F2"/>
<path d="M345.745 369.624H230.617V370.671H345.745V369.624Z" fill="#F2F2F2"/>
<path d="M345.745 374.333H230.617V375.38H345.745V374.333Z" fill="#F2F2F2"/>
<path d="M206.805 327.236H145.578V328.282H206.805V327.236Z" fill="#F2F2F2"/>
<path d="M206.805 331.945H145.578V332.991H206.805V331.945Z" fill="#F2F2F2"/>
<path d="M206.805 336.654H145.578V337.7H206.805V336.654Z" fill="#F2F2F2"/>
<path d="M206.805 341.364H145.578V342.411H206.805V341.364Z" fill="#F2F2F2"/>
<path d="M206.805 346.074H145.578V347.121H206.805V346.074Z" fill="#F2F2F2"/>
<path d="M206.805 350.783H145.578V351.83H206.805V350.783Z" fill="#F2F2F2"/>
<path d="M206.805 355.495H145.578V356.541H206.805V355.495Z" fill="#F2F2F2"/>
<path d="M206.805 360.205H145.578V361.251H206.805V360.205Z" fill="#F2F2F2"/>
<path d="M206.805 364.914H145.578V365.96H206.805V364.914Z" fill="#F2F2F2"/>
<path d="M206.805 369.624H145.578V370.671H206.805V369.624Z" fill="#F2F2F2"/>
<path d="M206.805 374.333H145.578V375.38H206.805V374.333Z" fill="#F2F2F2"/>
</g>
<path d="M190.795 382.828C190.795 382.927 190.814 383.025 190.851 383.117C190.889 383.208 190.944 383.291 191.014 383.362C191.084 383.432 191.167 383.488 191.258 383.526C191.35 383.564 191.448 383.584 191.547 383.584H437.737C437.937 383.584 438.13 383.504 438.271 383.363C438.413 383.221 438.493 383.028 438.493 382.828C438.493 382.627 438.413 382.435 438.271 382.293C438.13 382.151 437.937 382.071 437.737 382.071H191.551C191.452 382.071 191.354 382.09 191.263 382.128C191.171 382.165 191.088 382.221 191.017 382.291C190.947 382.36 190.891 382.443 190.853 382.535C190.815 382.626 190.795 382.724 190.795 382.823V382.828Z" fill="#CCCCCC"/>
<path opacity="0.5" d="M289.177 279.228C291.859 278.685 294.606 278.536 297.331 278.785C297.583 278.783 297.825 278.682 298.003 278.504C298.181 278.325 298.283 278.084 298.284 277.831C298.279 277.58 298.177 277.341 298 277.163C297.822 276.985 297.582 276.883 297.331 276.878C294.435 276.627 291.517 276.799 288.67 277.389C288.426 277.456 288.22 277.617 288.095 277.837C287.97 278.057 287.938 278.318 288.005 278.561C288.072 278.805 288.233 279.012 288.453 279.137C288.673 279.262 288.933 279.294 289.177 279.228H289.177Z" fill="#CCCCCC"/>
<path d="M223.719 262.641C218.475 255.667 215.445 247.868 215.345 238.976C215.177 238.497 215.205 237.97 215.423 237.512C215.642 237.053 216.034 236.7 216.513 236.53L234.385 230.206C234.864 230.037 235.391 230.065 235.85 230.284C236.308 230.503 236.661 230.895 236.831 231.374L245.205 255.039C245.373 255.518 245.345 256.045 245.127 256.503C244.908 256.962 244.516 257.315 244.037 257.485L226.165 263.808C225.686 263.977 225.159 263.949 224.7 263.73C224.242 263.512 223.889 263.12 223.719 262.641V262.641Z" fill="#E4E4E4"/>
<path opacity="0.1" d="M227.754 262.22C227.275 262.389 226.748 262.361 226.29 262.142C225.831 261.923 225.478 261.531 225.308 261.052C220.065 254.078 217.034 246.279 216.935 237.387C216.825 237.072 216.801 236.734 216.865 236.406L216.513 236.531C216.034 236.701 215.642 237.054 215.423 237.512C215.205 237.971 215.177 238.497 215.345 238.977C215.445 247.868 218.475 255.667 223.719 262.642C223.889 263.12 224.242 263.512 224.7 263.731C225.159 263.95 225.686 263.978 226.165 263.809L244.037 257.485C244.354 257.372 244.636 257.177 244.853 256.919C245.07 256.662 245.216 256.352 245.275 256.021L227.754 262.22Z" fill="black"/>
<path d="M236.126 244.506L224.161 248.777C223.971 248.845 223.761 248.835 223.578 248.748C223.396 248.662 223.255 248.506 223.187 248.316C223.119 248.125 223.129 247.916 223.216 247.733C223.303 247.55 223.458 247.409 223.649 247.341L235.613 243.071C235.804 243.003 236.013 243.014 236.195 243.101C236.377 243.187 236.518 243.343 236.586 243.533C236.654 243.723 236.643 243.932 236.557 244.115C236.471 244.297 236.316 244.438 236.126 244.506H236.126Z" fill="white"/>
<path d="M225.39 243.901L222.758 244.841C222.664 244.875 222.564 244.89 222.464 244.886C222.364 244.881 222.265 244.857 222.175 244.814C222.084 244.772 222.003 244.712 221.935 244.638C221.868 244.563 221.815 244.477 221.781 244.383C221.748 244.288 221.732 244.188 221.737 244.088C221.742 243.988 221.766 243.89 221.809 243.799C221.852 243.709 221.912 243.627 221.986 243.56C222.06 243.493 222.147 243.441 222.241 243.407L222.246 243.405L224.878 242.465C225.068 242.398 225.277 242.409 225.459 242.496C225.642 242.582 225.782 242.738 225.85 242.928C225.918 243.118 225.907 243.327 225.821 243.509C225.735 243.692 225.58 243.833 225.39 243.901V243.901Z" fill="white"/>
<path d="M238.38 250.819L226.415 255.089C226.225 255.157 226.015 255.146 225.833 255.059C225.651 254.972 225.511 254.817 225.443 254.627C225.375 254.437 225.385 254.228 225.471 254.045C225.557 253.863 225.712 253.722 225.902 253.654L237.867 249.383C238.057 249.314 238.267 249.324 238.449 249.411C238.632 249.497 238.773 249.652 238.842 249.842C238.91 250.032 238.901 250.241 238.815 250.424C238.729 250.607 238.574 250.748 238.384 250.817L238.38 250.819Z" fill="white"/>
<path d="M237.254 247.663L225.289 251.933C225.099 252.002 224.889 251.991 224.706 251.905C224.523 251.819 224.382 251.663 224.314 251.473C224.246 251.283 224.256 251.073 224.343 250.89C224.429 250.707 224.584 250.566 224.775 250.498L224.776 250.498L236.741 246.227C236.932 246.159 237.141 246.17 237.323 246.257C237.505 246.344 237.646 246.499 237.714 246.689C237.781 246.879 237.771 247.088 237.685 247.271C237.599 247.453 237.444 247.594 237.254 247.663H237.254Z" fill="white"/>
<path d="M224.973 236.775C226.729 236.775 228.152 235.352 228.152 233.596C228.152 231.841 226.729 230.418 224.973 230.418C223.218 230.418 221.795 231.841 221.795 233.596C221.795 235.352 223.218 236.775 224.973 236.775Z" fill="#CCCCCC"/>
<path d="M341.299 96.3194C341.35 100.972 342.831 110.66 341.769 115.218L341.598 114.836C340.715 115.536 339.778 116.163 338.795 116.711C338.085 114.986 337.025 113.427 335.68 112.135C335.857 114.274 335.604 116.426 334.936 118.466C330.963 119.896 323.99 115.389 319.668 115.294C312.713 115.135 305.937 113.406 299.295 111.575C296.936 110.927 294.343 110.081 293.275 108.124C292.207 106.166 294.118 104.052 293.993 101.843C293.102 86.1071 300.598 83.4694 307.73 79.2646C309.299 78.3393 310.069 76.3469 311.843 75.5714C314.303 74.4971 317.233 75.012 319.909 75.5523C319.244 75.3334 318.647 74.947 318.175 74.4304C317.703 73.9139 317.372 73.2845 317.214 72.6028C317.102 71.9348 317.177 71.2488 317.431 70.6207C317.684 69.9926 318.106 69.4466 318.65 69.0432C320.125 67.9053 322.325 67.7655 324.206 68.2486C326.024 68.817 327.743 69.6617 329.304 70.7531C330.364 71.3344 331.311 72.1008 332.101 73.016C332.473 73.4492 332.704 73.9855 332.763 74.5535C332.822 75.1215 332.707 75.6939 332.432 76.1943C332.092 76.6233 331.661 76.9701 331.169 77.209C330.677 77.4478 330.137 77.5725 329.59 77.5737C328.748 77.5983 327.905 77.5106 327.086 77.3131C330.843 78.2398 334.228 80.2885 336.792 83.1866C339.977 86.8925 341.242 91.6663 341.299 96.3194Z" fill="#2F2E41"/>
<path d="M232.54 129.876C232.958 131.334 233.928 132.571 235.245 133.324C236.561 134.077 238.119 134.287 239.588 133.909C239.885 133.828 240.175 133.722 240.455 133.592L254.682 148.087L264.577 143.456L242.941 125.707C242.315 124.588 241.335 123.708 240.156 123.204C238.977 122.701 237.665 122.601 236.423 122.922C235.719 123.111 235.058 123.437 234.48 123.882C233.901 124.326 233.416 124.88 233.051 125.513C232.687 126.145 232.45 126.842 232.356 127.566C232.261 128.289 232.309 129.024 232.499 129.729V129.729C232.512 129.778 232.526 129.827 232.54 129.876Z" fill="#FFDBC4"/>
<path d="M232.54 129.876C232.958 131.334 233.928 132.571 235.245 133.324C236.561 134.077 238.119 134.287 239.588 133.909C239.885 133.828 240.175 133.722 240.455 133.592L254.682 148.087L264.577 143.456L242.941 125.707C242.315 124.588 241.335 123.708 240.156 123.204C238.977 122.701 237.665 122.601 236.423 122.922C235.719 123.111 235.058 123.437 234.48 123.882C233.901 124.326 233.416 124.88 233.051 125.513C232.687 126.145 232.45 126.842 232.356 127.566C232.261 128.289 232.309 129.024 232.499 129.729V129.729C232.512 129.778 232.526 129.827 232.54 129.876Z" fill="url(#paint6_linear_515_583)" fill-opacity="0.8" style="mix-blend-mode:overlay"/>
<path d="M390.682 130.841C389.177 131.029 387.805 131.796 386.857 132.98C385.909 134.164 385.461 135.671 385.607 137.18C385.642 137.487 385.702 137.79 385.786 138.086L369.266 149.901L372.311 160.393L393.192 141.762C394.395 141.316 395.415 140.484 396.095 139.397C396.775 138.31 397.077 137.029 396.952 135.753C396.874 135.027 396.653 134.324 396.304 133.684C395.954 133.044 395.482 132.478 394.913 132.021C394.345 131.563 393.693 131.221 392.993 131.016C392.292 130.81 391.559 130.745 390.833 130.823C390.783 130.828 390.732 130.834 390.682 130.841Z" fill="#FFDBC4"/>
<path d="M390.682 130.841C389.177 131.029 387.805 131.796 386.857 132.98C385.909 134.164 385.461 135.671 385.607 137.18C385.642 137.487 385.702 137.79 385.786 138.086L369.266 149.901L372.311 160.393L393.192 141.762C394.395 141.316 395.415 140.484 396.095 139.397C396.775 138.31 397.077 137.029 396.952 135.753C396.874 135.027 396.653 134.324 396.304 133.684C395.954 133.044 395.482 132.478 394.913 132.021C394.345 131.563 393.693 131.221 392.993 131.016C392.292 130.81 391.559 130.745 390.833 130.823C390.783 130.828 390.732 130.834 390.682 130.841Z" fill="url(#paint7_linear_515_583)" fill-opacity="0.8" style="mix-blend-mode:overlay"/>
<path d="M279.085 372.38L273.765 372.335L271.41 351.337L279.262 351.403L279.085 372.38Z" fill="#FFDBC4"/>
<path d="M262.045 380.841C262.04 381.472 262.286 382.078 262.728 382.528C263.17 382.978 263.772 383.234 264.403 383.24L274.981 383.329L276.832 379.575L277.512 383.348L281.504 383.384L280.496 369.928L279.107 369.836L273.443 369.446L271.616 369.323L271.584 373.13L263.087 378.894C262.769 379.11 262.508 379.4 262.326 379.739C262.145 380.078 262.048 380.456 262.045 380.841Z" fill="#2F2E41"/>
<path d="M349.215 348.812L344.872 351.884L330.691 336.219L337.102 331.685L349.215 348.812Z" fill="#FFDBC4"/>
<path d="M340.327 365.634C340.692 366.149 341.246 366.498 341.867 366.604C342.489 366.711 343.127 366.567 343.643 366.203L352.279 360.095L351.588 355.967L354.344 358.631L357.605 356.329L348.925 345.998L347.744 346.734L342.92 349.726L341.365 350.695L343.564 353.803L340.035 363.445C339.903 363.806 339.861 364.194 339.911 364.575C339.962 364.957 340.105 365.32 340.327 365.634V365.634Z" fill="#2F2E41"/>
<path d="M283.076 202.133L298.53 166.247H334.124L323.858 203.698L283.076 202.133Z" fill="#FFDBC4"/>
<path d="M283.076 202.133L298.53 166.247H334.124L323.858 203.698L283.076 202.133Z" fill="url(#paint8_linear_515_583)" fill-opacity="0.8" style="mix-blend-mode:overlay"/>
<path d="M250.401 372.542C250.106 372.556 249.813 372.478 249.564 372.32C249.314 372.162 249.118 371.931 249.004 371.658C248.89 371.385 248.863 371.083 248.926 370.794C248.989 370.505 249.139 370.243 249.356 370.042L249.455 369.649C249.442 369.617 249.429 369.586 249.416 369.555C249.118 368.852 248.619 368.252 247.982 367.832C247.345 367.411 246.597 367.188 245.834 367.191C245.07 367.194 244.325 367.422 243.691 367.848C243.057 368.273 242.562 368.876 242.27 369.581C241.101 372.396 239.613 375.216 239.247 378.192C239.085 379.507 239.153 380.841 239.448 382.133C236.703 376.145 235.278 369.637 235.268 363.05C235.268 361.397 235.36 359.745 235.543 358.103C235.695 356.756 235.906 355.419 236.176 354.092C237.647 346.889 240.806 340.138 245.393 334.393C247.613 333.181 249.408 331.318 250.537 329.055C250.946 328.242 251.235 327.373 251.395 326.477C251.145 326.51 250.451 322.696 250.64 322.462C250.291 321.932 249.666 321.669 249.285 321.152C247.389 318.582 244.777 319.03 243.414 322.523C240.501 323.993 240.473 326.431 242.26 328.776C243.397 330.268 243.554 332.286 244.551 333.884C244.449 334.015 244.342 334.142 244.239 334.274C242.363 336.686 240.728 339.277 239.357 342.009C239.69 338.948 239.292 335.853 238.196 332.976C237.084 330.295 235.002 328.038 233.167 325.72C232.682 325.098 232.023 324.633 231.274 324.385C230.525 324.136 229.719 324.116 228.958 324.326C228.197 324.535 227.516 324.966 226.999 325.563C226.483 326.16 226.156 326.897 226.058 327.68C226.054 327.714 226.051 327.748 226.047 327.783C226.32 327.936 226.586 328.099 226.847 328.272C227.175 328.491 227.429 328.804 227.576 329.17C227.723 329.536 227.756 329.937 227.671 330.322C227.585 330.707 227.386 331.057 227.098 331.327C226.81 331.596 226.448 331.773 226.058 331.833L226.018 331.839C226.115 332.821 226.287 333.794 226.532 334.75C224.178 343.85 229.259 347.164 236.512 347.313C236.673 347.395 236.829 347.477 236.989 347.555C235.611 351.459 234.747 355.524 234.419 359.651C234.232 362.085 234.243 364.53 234.451 366.963L234.439 366.877C233.913 364.172 232.471 361.731 230.354 359.967C227.21 357.384 222.769 356.433 219.377 354.357C219.017 354.126 218.598 354.003 218.169 354.001C217.741 354 217.321 354.122 216.96 354.352C216.598 354.581 216.31 354.909 216.129 355.298C215.948 355.686 215.881 356.118 215.937 356.542L215.951 356.633C216.457 356.839 216.949 357.076 217.425 357.343C217.698 357.497 217.964 357.66 218.225 357.833C218.553 358.052 218.807 358.365 218.954 358.73C219.101 359.096 219.134 359.498 219.049 359.883C218.963 360.268 218.764 360.618 218.476 360.887C218.188 361.157 217.826 361.333 217.436 361.393L217.396 361.4C217.368 361.404 217.343 361.408 217.314 361.412C218.178 363.475 219.391 365.373 220.899 367.024C222.37 374.968 228.689 375.722 235.449 373.409H235.453C236.195 376.632 237.269 379.769 238.66 382.769H250.114C250.155 382.642 250.192 382.511 250.229 382.384C249.169 382.45 248.105 382.387 247.06 382.195C247.91 381.152 248.759 380.101 249.609 379.058C249.628 379.038 249.646 379.018 249.663 378.996C250.094 378.463 250.529 377.933 250.96 377.399L250.96 377.399C250.983 375.763 250.796 374.13 250.402 372.542L250.401 372.542Z" fill="#F2F2F2"/>
<path d="M250.401 372.542C250.106 372.556 249.813 372.478 249.564 372.32C249.314 372.162 249.118 371.931 249.004 371.658C248.89 371.385 248.863 371.083 248.926 370.794C248.989 370.505 249.139 370.243 249.356 370.042L249.455 369.649C249.442 369.617 249.429 369.586 249.416 369.555C249.118 368.852 248.619 368.252 247.982 367.832C247.345 367.411 246.597 367.188 245.834 367.191C245.07 367.194 244.325 367.422 243.691 367.848C243.057 368.273 242.562 368.876 242.27 369.581C241.101 372.396 239.613 375.216 239.247 378.192C239.085 379.507 239.153 380.841 239.448 382.133C236.703 376.145 235.278 369.637 235.268 363.05C235.268 361.397 235.36 359.745 235.543 358.103C235.695 356.756 235.906 355.419 236.176 354.092C237.647 346.889 240.806 340.138 245.393 334.393C247.613 333.181 249.408 331.318 250.537 329.055C250.946 328.242 251.235 327.373 251.395 326.477C251.145 326.51 250.451 322.696 250.64 322.462C250.291 321.932 249.666 321.669 249.285 321.152C247.389 318.582 244.777 319.03 243.414 322.523C240.501 323.993 240.473 326.431 242.26 328.776C243.397 330.268 243.554 332.286 244.551 333.884C244.449 334.015 244.342 334.142 244.239 334.274C242.363 336.686 240.728 339.277 239.357 342.009C239.69 338.948 239.292 335.853 238.196 332.976C237.084 330.295 235.002 328.038 233.167 325.72C232.682 325.098 232.023 324.633 231.274 324.385C230.525 324.136 229.719 324.116 228.958 324.326C228.197 324.535 227.516 324.966 226.999 325.563C226.483 326.16 226.156 326.897 226.058 327.68C226.054 327.714 226.051 327.748 226.047 327.783C226.32 327.936 226.586 328.099 226.847 328.272C227.175 328.491 227.429 328.804 227.576 329.17C227.723 329.536 227.756 329.937 227.671 330.322C227.585 330.707 227.386 331.057 227.098 331.327C226.81 331.596 226.448 331.773 226.058 331.833L226.018 331.839C226.115 332.821 226.287 333.794 226.532 334.75C224.178 343.85 229.259 347.164 236.512 347.313C236.673 347.395 236.829 347.477 236.989 347.555C235.611 351.459 234.747 355.524 234.419 359.651C234.232 362.085 234.243 364.53 234.451 366.963L234.439 366.877C233.913 364.172 232.471 361.731 230.354 359.967C227.21 357.384 222.769 356.433 219.377 354.357C219.017 354.126 218.598 354.003 218.169 354.001C217.741 354 217.321 354.122 216.96 354.352C216.598 354.581 216.31 354.909 216.129 355.298C215.948 355.686 215.881 356.118 215.937 356.542L215.951 356.633C216.457 356.839 216.949 357.076 217.425 357.343C217.698 357.497 217.964 357.66 218.225 357.833C218.553 358.052 218.807 358.365 218.954 358.73C219.101 359.096 219.134 359.498 219.049 359.883C218.963 360.268 218.764 360.618 218.476 360.887C218.188 361.157 217.826 361.333 217.436 361.393L217.396 361.4C217.368 361.404 217.343 361.408 217.314 361.412C218.178 363.475 219.391 365.373 220.899 367.024C222.37 374.968 228.689 375.722 235.449 373.409H235.453C236.195 376.632 237.269 379.769 238.66 382.769H250.114C250.155 382.642 250.192 382.511 250.229 382.384C249.169 382.45 248.105 382.387 247.06 382.195C247.91 381.152 248.759 380.101 249.609 379.058C249.628 379.038 249.646 379.018 249.663 378.996C250.094 378.463 250.529 377.933 250.96 377.399L250.96 377.399C250.983 375.763 250.796 374.13 250.402 372.542L250.401 372.542Z" fill="#ADD9AD"/>
<path d="M250.401 372.542C250.106 372.556 249.813 372.478 249.564 372.32C249.314 372.162 249.118 371.931 249.004 371.658C248.89 371.385 248.863 371.083 248.926 370.794C248.989 370.505 249.139 370.243 249.356 370.042L249.455 369.649C249.442 369.617 249.429 369.586 249.416 369.555C249.118 368.852 248.619 368.252 247.982 367.832C247.345 367.411 246.597 367.188 245.834 367.191C245.07 367.194 244.325 367.422 243.691 367.848C243.057 368.273 242.562 368.876 242.27 369.581C241.101 372.396 239.613 375.216 239.247 378.192C239.085 379.507 239.153 380.841 239.448 382.133C236.703 376.145 235.278 369.637 235.268 363.05C235.268 361.397 235.36 359.745 235.543 358.103C235.695 356.756 235.906 355.419 236.176 354.092C237.647 346.889 240.806 340.138 245.393 334.393C247.613 333.181 249.408 331.318 250.537 329.055C250.946 328.242 251.235 327.373 251.395 326.477C251.145 326.51 250.451 322.696 250.64 322.462C250.291 321.932 249.666 321.669 249.285 321.152C247.389 318.582 244.777 319.03 243.414 322.523C240.501 323.993 240.473 326.431 242.26 328.776C243.397 330.268 243.554 332.286 244.551 333.884C244.449 334.015 244.342 334.142 244.239 334.274C242.363 336.686 240.728 339.277 239.357 342.009C239.69 338.948 239.292 335.853 238.196 332.976C237.084 330.295 235.002 328.038 233.167 325.72C232.682 325.098 232.023 324.633 231.274 324.385C230.525 324.136 229.719 324.116 228.958 324.326C228.197 324.535 227.516 324.966 226.999 325.563C226.483 326.16 226.156 326.897 226.058 327.68C226.054 327.714 226.051 327.748 226.047 327.783C226.32 327.936 226.586 328.099 226.847 328.272C227.175 328.491 227.429 328.804 227.576 329.17C227.723 329.536 227.756 329.937 227.671 330.322C227.585 330.707 227.386 331.057 227.098 331.327C226.81 331.596 226.448 331.773 226.058 331.833L226.018 331.839C226.115 332.821 226.287 333.794 226.532 334.75C224.178 343.85 229.259 347.164 236.512 347.313C236.673 347.395 236.829 347.477 236.989 347.555C235.611 351.459 234.747 355.524 234.419 359.651C234.232 362.085 234.243 364.53 234.451 366.963L234.439 366.877C233.913 364.172 232.471 361.731 230.354 359.967C227.21 357.384 222.769 356.433 219.377 354.357C219.017 354.126 218.598 354.003 218.169 354.001C217.741 354 217.321 354.122 216.96 354.352C216.598 354.581 216.31 354.909 216.129 355.298C215.948 355.686 215.881 356.118 215.937 356.542L215.951 356.633C216.457 356.839 216.949 357.076 217.425 357.343C217.698 357.497 217.964 357.66 218.225 357.833C218.553 358.052 218.807 358.365 218.954 358.73C219.101 359.096 219.134 359.498 219.049 359.883C218.963 360.268 218.764 360.618 218.476 360.887C218.188 361.157 217.826 361.333 217.436 361.393L217.396 361.4C217.368 361.404 217.343 361.408 217.314 361.412C218.178 363.475 219.391 365.373 220.899 367.024C222.37 374.968 228.689 375.722 235.449 373.409H235.453C236.195 376.632 237.269 379.769 238.66 382.769H250.114C250.155 382.642 250.192 382.511 250.229 382.384C249.169 382.45 248.105 382.387 247.06 382.195C247.91 381.152 248.759 380.101 249.609 379.058C249.628 379.038 249.646 379.018 249.663 378.996C250.094 378.463 250.529 377.933 250.96 377.399L250.96 377.399C250.983 375.763 250.796 374.13 250.402 372.542L250.401 372.542Z" fill="url(#paint9_linear_515_583)" fill-opacity="0.8" style="mix-blend-mode:overlay"/>
<path d="M374.351 372.542C374.647 372.556 374.939 372.478 375.189 372.32C375.439 372.162 375.634 371.93 375.749 371.658C375.863 371.385 375.89 371.083 375.827 370.794C375.764 370.505 375.614 370.243 375.397 370.042L375.298 369.649C375.311 369.617 375.324 369.586 375.337 369.555C375.635 368.851 376.134 368.252 376.771 367.832C377.408 367.411 378.155 367.188 378.919 367.191C379.682 367.194 380.428 367.422 381.062 367.847C381.696 368.273 382.191 368.876 382.483 369.581C383.652 372.396 385.14 375.216 385.506 378.192C385.667 379.507 385.599 380.841 385.305 382.133C388.05 376.145 389.475 369.637 389.484 363.05C389.485 361.397 389.393 359.745 389.209 358.103C389.057 356.756 388.847 355.419 388.577 354.092C387.106 346.889 383.947 340.138 379.36 334.393C377.14 333.181 375.344 331.318 374.216 329.055C373.807 328.242 373.518 327.373 373.357 326.477C373.608 326.51 374.302 322.696 374.113 322.462C374.462 321.932 375.087 321.669 375.468 321.152C377.363 318.582 379.975 319.03 381.339 322.523C384.252 323.993 384.28 326.431 382.493 328.776C381.356 330.268 381.199 332.286 380.202 333.884C380.304 334.015 380.411 334.142 380.514 334.274C382.39 336.686 384.025 339.277 385.396 342.009C385.063 338.948 385.461 335.853 386.557 332.976C387.668 330.295 389.751 328.038 391.585 325.72C392.071 325.098 392.729 324.633 393.479 324.385C394.228 324.136 395.034 324.116 395.795 324.326C396.556 324.535 397.237 324.966 397.753 325.563C398.27 326.16 398.597 326.897 398.695 327.68C398.698 327.714 398.702 327.748 398.706 327.783C398.433 327.936 398.167 328.099 397.906 328.272C397.578 328.491 397.324 328.804 397.177 329.17C397.03 329.536 396.997 329.937 397.082 330.322C397.168 330.707 397.367 331.057 397.655 331.327C397.943 331.596 398.305 331.773 398.695 331.833L398.734 331.839C398.637 332.821 398.466 333.794 398.221 334.75C400.574 343.85 395.494 347.164 388.24 347.313C388.08 347.395 387.924 347.477 387.764 347.555C389.141 351.459 390.005 355.524 390.334 359.651C390.52 362.085 390.509 364.53 390.301 366.963L390.314 366.877C390.839 364.172 392.282 361.731 394.399 359.967C397.543 357.384 401.984 356.433 405.376 354.357C405.736 354.126 406.155 354.003 406.584 354.001C407.012 354 407.432 354.122 407.793 354.352C408.155 354.581 408.443 354.909 408.624 355.298C408.805 355.686 408.872 356.118 408.815 356.542L408.801 356.633C408.296 356.839 407.804 357.076 407.328 357.343C407.055 357.497 406.788 357.66 406.527 357.833C406.2 358.052 405.946 358.364 405.799 358.73C405.652 359.096 405.619 359.498 405.704 359.883C405.789 360.268 405.989 360.618 406.277 360.887C406.564 361.157 406.927 361.333 407.316 361.393L407.356 361.4C407.385 361.404 407.41 361.408 407.438 361.412C406.575 363.474 405.362 365.373 403.854 367.024C402.383 374.968 396.063 375.722 389.304 373.409H389.3C388.558 376.631 387.483 379.769 386.093 382.769H374.638C374.597 382.642 374.56 382.511 374.523 382.383C375.584 382.45 376.648 382.387 377.693 382.195C376.843 381.152 375.993 380.101 375.143 379.058C375.124 379.038 375.107 379.018 375.09 378.996C374.659 378.463 374.224 377.933 373.793 377.399L373.792 377.399C373.769 375.763 373.957 374.13 374.351 372.542L374.351 372.542Z" fill="#F2F2F2"/>
<path d="M374.351 372.542C374.647 372.556 374.939 372.478 375.189 372.32C375.439 372.162 375.634 371.93 375.749 371.658C375.863 371.385 375.89 371.083 375.827 370.794C375.764 370.505 375.614 370.243 375.397 370.042L375.298 369.649C375.311 369.617 375.324 369.586 375.337 369.555C375.635 368.851 376.134 368.252 376.771 367.832C377.408 367.411 378.155 367.188 378.919 367.191C379.682 367.194 380.428 367.422 381.062 367.847C381.696 368.273 382.191 368.876 382.483 369.581C383.652 372.396 385.14 375.216 385.506 378.192C385.667 379.507 385.599 380.841 385.305 382.133C388.05 376.145 389.475 369.637 389.484 363.05C389.485 361.397 389.393 359.745 389.209 358.103C389.057 356.756 388.847 355.419 388.577 354.092C387.106 346.889 383.947 340.138 379.36 334.393C377.14 333.181 375.344 331.318 374.216 329.055C373.807 328.242 373.518 327.373 373.357 326.477C373.608 326.51 374.302 322.696 374.113 322.462C374.462 321.932 375.087 321.669 375.468 321.152C377.363 318.582 379.975 319.03 381.339 322.523C384.252 323.993 384.28 326.431 382.493 328.776C381.356 330.268 381.199 332.286 380.202 333.884C380.304 334.015 380.411 334.142 380.514 334.274C382.39 336.686 384.025 339.277 385.396 342.009C385.063 338.948 385.461 335.853 386.557 332.976C387.668 330.295 389.751 328.038 391.585 325.72C392.071 325.098 392.729 324.633 393.479 324.385C394.228 324.136 395.034 324.116 395.795 324.326C396.556 324.535 397.237 324.966 397.753 325.563C398.27 326.16 398.597 326.897 398.695 327.68C398.698 327.714 398.702 327.748 398.706 327.783C398.433 327.936 398.167 328.099 397.906 328.272C397.578 328.491 397.324 328.804 397.177 329.17C397.03 329.536 396.997 329.937 397.082 330.322C397.168 330.707 397.367 331.057 397.655 331.327C397.943 331.596 398.305 331.773 398.695 331.833L398.734 331.839C398.637 332.821 398.466 333.794 398.221 334.75C400.574 343.85 395.494 347.164 388.24 347.313C388.08 347.395 387.924 347.477 387.764 347.555C389.141 351.459 390.005 355.524 390.334 359.651C390.52 362.085 390.509 364.53 390.301 366.963L390.314 366.877C390.839 364.172 392.282 361.731 394.399 359.967C397.543 357.384 401.984 356.433 405.376 354.357C405.736 354.126 406.155 354.003 406.584 354.001C407.012 354 407.432 354.122 407.793 354.352C408.155 354.581 408.443 354.909 408.624 355.298C408.805 355.686 408.872 356.118 408.815 356.542L408.801 356.633C408.296 356.839 407.804 357.076 407.328 357.343C407.055 357.497 406.788 357.66 406.527 357.833C406.2 358.052 405.946 358.364 405.799 358.73C405.652 359.096 405.619 359.498 405.704 359.883C405.789 360.268 405.989 360.618 406.277 360.887C406.564 361.157 406.927 361.333 407.316 361.393L407.356 361.4C407.385 361.404 407.41 361.408 407.438 361.412C406.575 363.474 405.362 365.373 403.854 367.024C402.383 374.968 396.063 375.722 389.304 373.409H389.3C388.558 376.631 387.483 379.769 386.093 382.769H374.638C374.597 382.642 374.56 382.511 374.523 382.383C375.584 382.45 376.648 382.387 377.693 382.195C376.843 381.152 375.993 380.101 375.143 379.058C375.124 379.038 375.107 379.018 375.09 378.996C374.659 378.463 374.224 377.933 373.793 377.399L373.792 377.399C373.769 375.763 373.957 374.13 374.351 372.542L374.351 372.542Z" fill="#ADD9AD"/>
<path d="M374.351 372.542C374.647 372.556 374.939 372.478 375.189 372.32C375.439 372.162 375.634 371.93 375.749 371.658C375.863 371.385 375.89 371.083 375.827 370.794C375.764 370.505 375.614 370.243 375.397 370.042L375.298 369.649C375.311 369.617 375.324 369.586 375.337 369.555C375.635 368.851 376.134 368.252 376.771 367.832C377.408 367.411 378.155 367.188 378.919 367.191C379.682 367.194 380.428 367.422 381.062 367.847C381.696 368.273 382.191 368.876 382.483 369.581C383.652 372.396 385.14 375.216 385.506 378.192C385.667 379.507 385.599 380.841 385.305 382.133C388.05 376.145 389.475 369.637 389.484 363.05C389.485 361.397 389.393 359.745 389.209 358.103C389.057 356.756 388.847 355.419 388.577 354.092C387.106 346.889 383.947 340.138 379.36 334.393C377.14 333.181 375.344 331.318 374.216 329.055C373.807 328.242 373.518 327.373 373.357 326.477C373.608 326.51 374.302 322.696 374.113 322.462C374.462 321.932 375.087 321.669 375.468 321.152C377.363 318.582 379.975 319.03 381.339 322.523C384.252 323.993 384.28 326.431 382.493 328.776C381.356 330.268 381.199 332.286 380.202 333.884C380.304 334.015 380.411 334.142 380.514 334.274C382.39 336.686 384.025 339.277 385.396 342.009C385.063 338.948 385.461 335.853 386.557 332.976C387.668 330.295 389.751 328.038 391.585 325.72C392.071 325.098 392.729 324.633 393.479 324.385C394.228 324.136 395.034 324.116 395.795 324.326C396.556 324.535 397.237 324.966 397.753 325.563C398.27 326.16 398.597 326.897 398.695 327.68C398.698 327.714 398.702 327.748 398.706 327.783C398.433 327.936 398.167 328.099 397.906 328.272C397.578 328.491 397.324 328.804 397.177 329.17C397.03 329.536 396.997 329.937 397.082 330.322C397.168 330.707 397.367 331.057 397.655 331.327C397.943 331.596 398.305 331.773 398.695 331.833L398.734 331.839C398.637 332.821 398.466 333.794 398.221 334.75C400.574 343.85 395.494 347.164 388.24 347.313C388.08 347.395 387.924 347.477 387.764 347.555C389.141 351.459 390.005 355.524 390.334 359.651C390.52 362.085 390.509 364.53 390.301 366.963L390.314 366.877C390.839 364.172 392.282 361.731 394.399 359.967C397.543 357.384 401.984 356.433 405.376 354.357C405.736 354.126 406.155 354.003 406.584 354.001C407.012 354 407.432 354.122 407.793 354.352C408.155 354.581 408.443 354.909 408.624 355.298C408.805 355.686 408.872 356.118 408.815 356.542L408.801 356.633C408.296 356.839 407.804 357.076 407.328 357.343C407.055 357.497 406.788 357.66 406.527 357.833C406.2 358.052 405.946 358.364 405.799 358.73C405.652 359.096 405.619 359.498 405.704 359.883C405.789 360.268 405.989 360.618 406.277 360.887C406.564 361.157 406.927 361.333 407.316 361.393L407.356 361.4C407.385 361.404 407.41 361.408 407.438 361.412C406.575 363.474 405.362 365.373 403.854 367.024C402.383 374.968 396.063 375.722 389.304 373.409H389.3C388.558 376.631 387.483 379.769 386.093 382.769H374.638C374.597 382.642 374.56 382.511 374.523 382.383C375.584 382.45 376.648 382.387 377.693 382.195C376.843 381.152 375.993 380.101 375.143 379.058C375.124 379.038 375.107 379.018 375.09 378.996C374.659 378.463 374.224 377.933 373.793 377.399L373.792 377.399C373.769 375.763 373.957 374.13 374.351 372.542L374.351 372.542Z" fill="url(#paint10_linear_515_583)" fill-opacity="0.8" style="mix-blend-mode:overlay"/>
<path d="M283.075 199.438L267.732 231.445L268.828 358.995H281.969C281.969 358.995 284.524 355.549 284.524 353.135C284.524 350.72 280.178 350.37 283.075 347.406C285.973 344.442 286.939 343.476 286.939 340.579V294.224L297.3 249.288L296.205 298.662L333.439 343.101L342.113 334.427C342.113 334.427 344.649 333.309 342.113 330.907C339.576 328.506 337.994 332.747 337.819 326.039C337.644 319.331 339.093 320.779 337.644 319.331C336.196 317.882 315.917 293.674 315.917 293.674C315.917 293.674 334.264 215.504 325.089 200.534L283.075 199.438Z" fill="#484848"/>
<path d="M283.075 199.438L267.732 231.445L268.828 358.995H281.969C281.969 358.995 284.524 355.549 284.524 353.135C284.524 350.72 280.178 350.37 283.075 347.406C285.973 344.442 286.939 343.476 286.939 340.579V294.224L297.3 249.288L296.205 298.662L333.439 343.101L342.113 334.427C342.113 334.427 344.649 333.309 342.113 330.907C339.576 328.506 337.994 332.747 337.819 326.039C337.644 319.331 339.093 320.779 337.644 319.331C336.196 317.882 315.917 293.674 315.917 293.674C315.917 293.674 334.264 215.504 325.089 200.534L283.075 199.438Z" fill="url(#paint11_linear_515_583)" fill-opacity="0.8" style="mix-blend-mode:overlay"/>
<g filter="url(#filter2_i_515_583)">
<path d="M323.646 130.622L329.89 125.793C329.89 125.793 340.548 125.793 341.997 131.588C343.446 137.383 352.166 151.554 352.166 151.554C352.166 151.554 360.831 146.558 364.211 146.558C367.592 146.558 370.006 148.973 370.006 146.075C370.006 143.178 368.074 142.695 370.972 142.695C373.869 142.695 381.596 139.797 381.596 139.797L389.838 148.039C389.838 148.039 388.84 155.734 385.459 155.251C382.079 154.768 380.147 152.353 380.147 155.251C380.147 158.148 382.079 162.494 377.733 162.977C373.386 163.46 344.412 170.704 344.412 170.704L324.612 141.729L323.646 130.622Z" fill="#FFD98E"/>
<path d="M323.646 130.622L329.89 125.793C329.89 125.793 340.548 125.793 341.997 131.588C343.446 137.383 352.166 151.554 352.166 151.554C352.166 151.554 360.831 146.558 364.211 146.558C367.592 146.558 370.006 148.973 370.006 146.075C370.006 143.178 368.074 142.695 370.972 142.695C373.869 142.695 381.596 139.797 381.596 139.797L389.838 148.039C389.838 148.039 388.84 155.734 385.459 155.251C382.079 154.768 380.147 152.353 380.147 155.251C380.147 158.148 382.079 162.494 377.733 162.977C373.386 163.46 344.412 170.704 344.412 170.704L324.612 141.729L323.646 130.622Z" fill="url(#paint12_linear_515_583)" fill-opacity="0.8" style="mix-blend-mode:overlay"/>
</g>
<g filter="url(#filter3_i_515_583)">
<path d="M309.886 131.165L304.498 125.397C304.498 125.397 293.977 123.688 291.618 129.175C289.258 134.663 277.899 147.174 277.899 147.174C277.899 147.174 270.627 140.931 267.29 140.389C263.954 139.846 261.183 141.842 261.648 138.982C262.113 136.123 264.097 135.956 261.237 135.491C258.377 135.026 251.215 130.927 251.215 130.927L241.758 137.74C241.758 137.74 241.509 145.495 244.923 145.56C248.337 145.626 250.631 143.552 250.166 146.412C249.702 149.272 247.098 153.252 251.31 154.426C255.523 155.6 282.96 167.397 282.96 167.397L307.151 141.974L309.886 131.165Z" fill="#FFD98E"/>
<path d="M309.886 131.165L304.498 125.397C304.498 125.397 293.977 123.688 291.618 129.175C289.258 134.663 277.899 147.174 277.899 147.174C277.899 147.174 270.627 140.931 267.29 140.389C263.954 139.846 261.183 141.842 261.648 138.982C262.113 136.123 264.097 135.956 261.237 135.491C258.377 135.026 251.215 130.927 251.215 130.927L241.758 137.74C241.758 137.74 241.509 145.495 244.923 145.56C248.337 145.626 250.631 143.552 250.166 146.412C249.702 149.272 247.098 153.252 251.31 154.426C255.523 155.6 282.96 167.397 282.96 167.397L307.151 141.974L309.886 131.165Z" fill="url(#paint13_linear_515_583)" fill-opacity="0.8" style="mix-blend-mode:overlay"/>
</g>
<g filter="url(#filter4_i_515_583)">
<path d="M326.051 202.948C326.051 202.948 286.452 188.944 289.349 181.217C292.247 173.491 297.114 174.977 291.3 172.544C288.367 171.315 285.826 169.52 288.047 167.443C291.663 164.062 294.178 159.486 294.178 156.106C294.178 152.725 288.14 133.117 294.178 127.078C297.992 123.264 302.009 125.397 305.527 122.946C309.197 120.389 312.529 114.092 312.529 114.092H322.484L327.499 125.199C327.499 125.199 333.786 124.001 337.31 126.165C342.395 129.288 343.378 133.823 343.349 140.427C343.289 153.723 339.291 174.753 336.051 176.053C332.811 177.354 329.914 177.354 332.811 180.251C335.709 183.149 337.359 184.647 336.051 187.278C334.743 189.91 326.051 202.948 326.051 202.948Z" fill="#FFD98E"/>
<path d="M326.051 202.948C326.051 202.948 286.452 188.944 289.349 181.217C292.247 173.491 297.114 174.977 291.3 172.544C288.367 171.315 285.826 169.52 288.047 167.443C291.663 164.062 294.178 159.486 294.178 156.106C294.178 152.725 288.14 133.117 294.178 127.078C297.992 123.264 302.009 125.397 305.527 122.946C309.197 120.389 312.529 114.092 312.529 114.092H322.484L327.499 125.199C327.499 125.199 333.786 124.001 337.31 126.165C342.395 129.288 343.378 133.823 343.349 140.427C343.289 153.723 339.291 174.753 336.051 176.053C332.811 177.354 329.914 177.354 332.811 180.251C335.709 183.149 337.359 184.647 336.051 187.278C334.743 189.91 326.051 202.948 326.051 202.948Z" fill="url(#paint14_linear_515_583)" fill-opacity="0.8" style="mix-blend-mode:overlay"/>
</g>
<path d="M316.352 111.47C324.864 111.47 331.763 104.57 331.763 96.059C331.763 87.5477 324.864 80.6479 316.352 80.6479C307.841 80.6479 300.941 87.5477 300.941 96.059C300.941 104.57 307.841 111.47 316.352 111.47Z" fill="#FFDBC4"/>
<path d="M316.352 111.47C324.864 111.47 331.763 104.57 331.763 96.059C331.763 87.5477 324.864 80.6479 316.352 80.6479C307.841 80.6479 300.941 87.5477 300.941 96.059C300.941 104.57 307.841 111.47 316.352 111.47Z" fill="url(#paint15_radial_515_583)" fill-opacity="0.8" style="mix-blend-mode:overlay"/>
<path d="M333.169 93.7322C331.357 95.9253 328.662 95.8109 326.265 95.4612C325.509 95.3532 324.752 95.2324 323.996 95.0925C323.863 94.6666 323.71 94.2408 323.538 93.8276C322.829 92.1023 321.768 90.5436 320.424 89.2508C320.565 90.941 320.434 92.643 320.036 94.2916C318.631 93.9674 317.233 93.6051 315.84 93.2046C314.609 93.0044 313.501 92.3386 312.746 91.3448C311.992 90.3511 311.647 89.1054 311.785 87.8651C309.783 89.3907 307.602 90.7128 305.314 90.7383C304.024 90.7048 302.779 90.259 301.761 89.4663C300.743 88.6735 300.005 87.5755 299.657 86.3331C299.034 84.4261 299.129 82.2268 299.383 80.1672C299.688 77.7199 300.375 75.0311 302.028 74.0458C303.356 73.2449 304.888 73.817 306.255 74.4653C309.266 75.9103 312.12 77.6613 314.773 79.6905L314.804 80.3579C315.491 77.0716 317.76 74.5353 320.233 74.281C321.898 74.1157 323.526 74.8849 325.096 75.6604C327.148 76.5657 329.056 77.7672 330.759 79.2264C332.684 80.9769 334.02 83.2791 334.586 85.8182C335.177 88.5707 334.732 91.838 333.169 93.7322Z" fill="#2F2E41"/>
<path d="M317.913 72.3447C318.071 72.3579 317.683 72.2689 317.809 72.3218C317.747 72.2935 317.687 72.2603 317.631 72.2224C317.621 72.2162 317.496 72.115 317.578 72.1854C317.389 72.0387 317.247 71.8405 317.169 71.6148C316.994 71.0664 316.912 70.4924 316.928 69.9169C316.959 69.1605 316.83 68.4061 316.55 67.7031C316.466 67.5127 316.339 67.3446 316.179 67.2125C316.019 67.0805 315.829 66.988 315.626 66.9428C315.424 66.8976 315.213 66.9008 315.012 66.9523C314.81 67.0037 314.624 67.1019 314.468 67.2388C313.948 67.7489 313.906 68.6106 313.87 69.2959C313.83 70.0074 313.905 70.7207 314.093 71.4082C314.415 72.5387 315.06 73.5509 315.948 74.3215C316.973 75.2194 318.26 75.7629 319.619 75.8714C319.806 75.8672 319.987 75.8088 320.141 75.7034C320.295 75.5979 320.415 75.4499 320.487 75.2774C320.558 75.1048 320.578 74.9153 320.544 74.7317C320.509 74.5482 320.422 74.3786 320.293 74.2437L318.587 72.6239C318.408 72.4451 318.166 72.3446 317.913 72.3446C317.66 72.3446 317.417 72.4451 317.238 72.6239C317.06 72.8027 316.959 73.0452 316.959 73.2981C316.959 73.551 317.06 73.7935 317.238 73.9723L318.945 75.5921L319.619 73.9644C319.337 73.939 319.059 73.8823 318.79 73.7952C318.499 73.7141 318.22 73.592 317.963 73.4325C317.711 73.2944 317.475 73.1292 317.258 72.9399C317.12 72.8183 316.988 72.6897 316.862 72.5546C316.817 72.5056 316.772 72.4557 316.729 72.4049C316.732 72.4085 316.549 72.1792 316.627 72.2841C316.43 72.0143 316.259 71.7268 316.115 71.4251C316.064 71.3183 316.022 71.2075 315.99 71.0938C315.929 70.9069 315.88 70.7165 315.842 70.5238C315.769 70.1188 315.747 69.7064 315.777 69.296C315.785 69.1219 315.802 68.9484 315.829 68.7762C315.853 68.6854 315.87 68.593 315.882 68.4997C315.885 68.2683 315.85 68.6234 315.729 68.6773L315.248 68.8075C315.17 68.8011 315.094 68.7771 315.026 68.7374C314.958 68.6977 314.9 68.6432 314.856 68.578C314.836 68.4984 314.842 68.5125 314.873 68.6203C314.909 68.7469 314.937 68.8756 314.957 69.0057C314.994 69.3081 315.015 69.6123 315.021 69.9169C315.027 70.5622 315.102 71.2051 315.245 71.8345C315.378 72.467 315.708 73.0412 316.187 73.4752C316.666 73.9093 317.27 74.181 317.913 74.2517C318.165 74.2496 318.406 74.1485 318.585 73.9702C318.763 73.7918 318.864 73.5504 318.866 73.2982C318.861 73.0469 318.759 72.8072 318.581 72.6295C318.404 72.4517 318.164 72.3497 317.913 72.3447V72.3447Z" fill="#2F2E41"/>
<path d="M388.416 134.831C383.173 127.857 380.142 120.058 380.043 111.166C379.874 110.687 379.902 110.16 380.121 109.702C380.34 109.243 380.731 108.89 381.21 108.72L399.083 102.396C399.562 102.227 400.088 102.255 400.547 102.474C401.005 102.693 401.358 103.085 401.528 103.564L409.902 127.229C410.071 127.708 410.043 128.235 409.824 128.693C409.605 129.152 409.213 129.505 408.734 129.675L390.862 135.998C390.383 136.167 389.856 136.139 389.398 135.92C388.939 135.702 388.586 135.31 388.416 134.831V134.831Z" fill="white"/>
<path d="M388.416 134.831C383.173 127.857 380.142 120.058 380.043 111.166C379.874 110.687 379.902 110.16 380.121 109.702C380.34 109.243 380.731 108.89 381.21 108.72L399.083 102.396C399.562 102.227 400.088 102.255 400.547 102.474C401.005 102.693 401.358 103.085 401.528 103.564L409.902 127.229C410.071 127.708 410.043 128.235 409.824 128.693C409.605 129.152 409.213 129.505 408.734 129.675L390.862 135.998C390.383 136.167 389.856 136.139 389.398 135.92C388.939 135.702 388.586 135.31 388.416 134.831V134.831Z" fill="#F79C91" fill-opacity="0.6"/>
<path d="M388.416 134.831C383.173 127.857 380.142 120.058 380.043 111.166C379.874 110.687 379.902 110.16 380.121 109.702C380.34 109.243 380.731 108.89 381.21 108.72L399.083 102.396C399.562 102.227 400.088 102.255 400.547 102.474C401.005 102.693 401.358 103.085 401.528 103.564L409.902 127.229C410.071 127.708 410.043 128.235 409.824 128.693C409.605 129.152 409.213 129.505 408.734 129.675L390.862 135.998C390.383 136.167 389.856 136.139 389.398 135.92C388.939 135.702 388.586 135.31 388.416 134.831V134.831Z" fill="url(#paint16_linear_515_583)" style="mix-blend-mode:overlay"/>
<path opacity="0.2" d="M392.451 134.409C391.972 134.578 391.445 134.55 390.987 134.331C390.528 134.113 390.175 133.721 390.005 133.242C384.762 126.268 381.731 118.468 381.632 109.577C381.523 109.262 381.498 108.923 381.562 108.596L381.21 108.72C380.731 108.89 380.34 109.243 380.121 109.702C379.902 110.16 379.874 110.687 380.043 111.166C380.142 120.058 383.173 127.857 388.416 134.831C388.586 135.31 388.939 135.702 389.398 135.921C389.856 136.139 390.383 136.167 390.862 135.998L408.734 129.675C409.051 129.561 409.333 129.366 409.55 129.109C409.768 128.852 409.913 128.542 409.972 128.21L392.451 134.409Z" fill="black"/>
<path d="M400.823 116.696L388.858 120.967C388.668 121.035 388.458 121.025 388.276 120.938C388.093 120.852 387.952 120.696 387.884 120.506C387.816 120.315 387.827 120.106 387.913 119.923C388 119.74 388.155 119.6 388.346 119.532L400.311 115.261C400.405 115.227 400.505 115.212 400.605 115.217C400.705 115.222 400.803 115.247 400.893 115.29C400.984 115.333 401.065 115.393 401.132 115.467C401.199 115.541 401.251 115.628 401.285 115.722C401.319 115.817 401.333 115.917 401.328 116.017C401.323 116.117 401.299 116.215 401.256 116.305C401.213 116.395 401.153 116.477 401.078 116.544C401.004 116.611 400.918 116.663 400.823 116.696V116.696Z" fill="white"/>
<path d="M390.087 116.091L387.455 117.03C387.361 117.064 387.261 117.079 387.161 117.074C387.061 117.069 386.963 117.045 386.872 117.002C386.782 116.959 386.7 116.899 386.633 116.825C386.566 116.751 386.514 116.664 386.48 116.57C386.446 116.476 386.432 116.376 386.436 116.276C386.441 116.176 386.466 116.078 386.509 115.987C386.551 115.897 386.612 115.815 386.686 115.748C386.76 115.681 386.846 115.629 386.941 115.595L386.942 115.595L389.575 114.655C389.765 114.587 389.974 114.598 390.157 114.684C390.339 114.771 390.48 114.927 390.548 115.117C390.616 115.307 390.606 115.517 390.519 115.699C390.433 115.882 390.277 116.023 390.087 116.091V116.091Z" fill="white"/>
<path d="M403.076 123.009L391.111 127.28C390.921 127.348 390.711 127.338 390.528 127.251C390.346 127.165 390.205 127.009 390.136 126.819C390.068 126.629 390.078 126.419 390.165 126.236C390.251 126.054 390.407 125.913 390.597 125.844L390.599 125.844L402.564 121.573C402.754 121.505 402.963 121.516 403.146 121.602C403.328 121.689 403.469 121.845 403.537 122.035C403.605 122.225 403.594 122.435 403.508 122.617C403.422 122.8 403.266 122.941 403.076 123.009V123.009Z" fill="white"/>
<path d="M401.951 119.853L389.986 124.123C389.892 124.157 389.792 124.172 389.692 124.167C389.592 124.162 389.494 124.138 389.403 124.095C389.313 124.052 389.232 123.992 389.164 123.918C389.097 123.844 389.045 123.757 389.011 123.663C388.978 123.569 388.963 123.469 388.968 123.369C388.973 123.269 388.997 123.171 389.04 123.08C389.083 122.99 389.143 122.909 389.217 122.841C389.291 122.774 389.378 122.722 389.472 122.688L389.474 122.688L401.439 118.417C401.533 118.383 401.633 118.368 401.733 118.373C401.833 118.378 401.931 118.402 402.021 118.445C402.112 118.488 402.193 118.548 402.26 118.622C402.328 118.696 402.38 118.783 402.413 118.877C402.447 118.971 402.462 119.071 402.457 119.171C402.452 119.271 402.428 119.369 402.385 119.46C402.342 119.55 402.282 119.632 402.208 119.699C402.134 119.766 402.047 119.818 401.953 119.852L401.951 119.853Z" fill="white"/>
<path d="M399.291 108.644C401.397 108.644 403.104 106.936 403.104 104.83C403.104 102.723 401.397 101.016 399.291 101.016C397.184 101.016 395.477 102.723 395.477 104.83C395.477 106.936 397.184 108.644 399.291 108.644Z" fill="#484848"/>
<path d="M240.93 53.2261C244.131 45.1089 249.192 38.4462 256.718 33.7102C257.038 33.3155 257.502 33.064 258.007 33.0106C258.512 32.9573 259.018 33.1065 259.413 33.4256L274.152 45.3495C274.547 45.6695 274.798 46.133 274.852 46.6383C274.905 47.1435 274.756 47.6493 274.437 48.0447L258.648 67.5607C258.328 67.9553 257.865 68.2069 257.359 68.2602C256.854 68.3136 256.348 68.1643 255.953 67.8452L241.214 55.9213C240.819 55.6013 240.568 55.1378 240.515 54.6326C240.461 54.1273 240.61 53.6215 240.93 53.2261Z" fill="white"/>
<path d="M240.93 53.2261C244.131 45.1089 249.192 38.4462 256.718 33.7102C257.038 33.3155 257.502 33.064 258.007 33.0106C258.512 32.9573 259.018 33.1065 259.413 33.4256L274.152 45.3495C274.547 45.6695 274.798 46.133 274.852 46.6383C274.905 47.1435 274.756 47.6493 274.437 48.0447L258.648 67.5607C258.328 67.9553 257.865 68.2069 257.359 68.2602C256.854 68.3136 256.348 68.1643 255.953 67.8452L241.214 55.9213C240.819 55.6013 240.568 55.1378 240.515 54.6326C240.461 54.1273 240.61 53.6215 240.93 53.2261Z" fill="#5ABA47" fill-opacity="0.7"/>
<path d="M240.93 53.2261C244.131 45.1089 249.192 38.4462 256.718 33.7102C257.038 33.3155 257.502 33.064 258.007 33.0106C258.512 32.9573 259.018 33.1065 259.413 33.4256L274.152 45.3495C274.547 45.6695 274.798 46.133 274.852 46.6383C274.905 47.1435 274.756 47.6493 274.437 48.0447L258.648 67.5607C258.328 67.9553 257.865 68.2069 257.359 68.2602C256.854 68.3136 256.348 68.1643 255.953 67.8452L241.214 55.9213C240.819 55.6013 240.568 55.1378 240.515 54.6326C240.461 54.1273 240.61 53.6215 240.93 53.2261Z" fill="url(#paint17_linear_515_583)" style="mix-blend-mode:overlay"/>
<path opacity="0.2" d="M243.4 56.4444C243.005 56.1244 242.754 55.6609 242.7 55.1556C242.647 54.6504 242.796 54.1446 243.115 53.7492C246.316 45.632 251.378 38.9692 258.904 34.2332C259.115 33.9752 259.391 33.7775 259.703 33.6603L259.413 33.4256C259.018 33.1065 258.512 32.9573 258.007 33.0106C257.502 33.0639 257.038 33.3155 256.718 33.7102C249.192 38.4462 244.131 45.1089 240.93 53.2262C240.61 53.6215 240.461 54.1273 240.515 54.6326C240.568 55.1379 240.819 55.6013 241.214 55.9213L255.953 67.8452C256.215 68.0561 256.529 68.1939 256.862 68.2445C257.195 68.2952 257.535 68.2569 257.849 68.1336L243.4 56.4444Z" fill="black"/>
<path d="M262.875 54.3141L252.976 46.3511C252.819 46.2242 252.719 46.0402 252.698 45.8395C252.676 45.6389 252.735 45.4378 252.862 45.2806C252.988 45.1233 253.172 45.0226 253.373 45.0006C253.573 44.9786 253.774 45.0371 253.932 45.1632L263.831 53.1263C263.988 53.2532 264.088 53.4371 264.109 53.6378C264.131 53.8385 264.072 54.0395 263.945 54.1967C263.819 54.354 263.635 54.4546 263.435 54.4766C263.234 54.4986 263.033 54.4402 262.875 54.3141L262.875 54.3141Z" fill="white"/>
<path d="M257.775 44.8461L255.597 43.0943C255.44 42.9673 255.34 42.7834 255.319 42.5828C255.297 42.3822 255.356 42.1814 255.483 42.0242C255.609 41.8671 255.793 41.7664 255.993 41.7443C256.194 41.7222 256.395 41.7805 256.552 41.9064L258.73 43.6583C258.887 43.7852 258.987 43.9692 259.008 44.1698C259.03 44.3704 258.971 44.5713 258.844 44.7285C258.718 44.8857 258.534 44.9864 258.334 45.0084C258.133 45.0305 257.932 44.9721 257.775 44.8462L257.775 44.8461Z" fill="white"/>
<path d="M258.674 59.5368L248.775 51.5738C248.618 51.4469 248.518 51.2629 248.497 51.0622C248.475 50.8615 248.534 50.6605 248.661 50.5032C248.787 50.346 248.971 50.2453 249.171 50.2233C249.372 50.2013 249.573 50.2598 249.731 50.3859L259.63 58.3489C259.786 58.4759 259.886 58.6598 259.908 58.8604C259.929 59.061 259.87 59.2618 259.744 59.419C259.617 59.5761 259.434 59.6768 259.233 59.6989C259.033 59.721 258.832 59.6627 258.674 59.5368H258.674Z" fill="white"/>
<path d="M260.777 56.926L250.878 48.963C250.8 48.9004 250.735 48.8231 250.686 48.7354C250.638 48.6477 250.608 48.5514 250.596 48.4519C250.574 48.251 250.633 48.0494 250.759 47.8916C250.885 47.7337 251.069 47.6325 251.27 47.6101C251.471 47.5878 251.672 47.6462 251.83 47.7725L251.833 47.7751L261.732 55.7381C261.89 55.8644 261.991 56.0482 262.014 56.2492C262.036 56.4501 261.978 56.6517 261.851 56.8095C261.725 56.9674 261.541 57.0686 261.34 57.091C261.139 57.1133 260.938 57.0549 260.78 56.9286L260.777 56.926V56.926Z" fill="white"/>
<path d="M266.34 42.28C268.096 42.28 269.519 40.857 269.519 39.1016C269.519 37.3463 268.096 35.9233 266.34 35.9233C264.585 35.9233 263.162 37.3463 263.162 39.1016C263.162 40.857 264.585 42.28 266.34 42.28Z" fill="#3F3D56"/>
<path d="M206.025 132.743C200.024 121.317 197.45 109.211 199.414 96.2061C199.281 95.4664 199.447 94.7042 199.875 94.0867C200.304 93.4692 200.959 93.0468 201.699 92.9121L229.293 87.9198C230.032 87.7869 230.795 87.9527 231.412 88.381C232.03 88.8094 232.452 89.4651 232.587 90.2045L239.197 126.742C239.33 127.482 239.164 128.244 238.736 128.861C238.307 129.479 237.652 129.901 236.912 130.036L209.319 135.028C208.579 135.161 207.817 134.995 207.199 134.567C206.582 134.139 206.159 133.483 206.025 132.743Z" fill="white"/>
<path d="M206.025 132.743C200.024 121.317 197.45 109.211 199.414 96.2061C199.281 95.4664 199.447 94.7042 199.875 94.0867C200.304 93.4692 200.959 93.0468 201.699 92.9121L229.293 87.9198C230.032 87.7869 230.795 87.9527 231.412 88.381C232.03 88.8094 232.452 89.4651 232.587 90.2045L239.197 126.742C239.33 127.482 239.164 128.244 238.736 128.861C238.307 129.479 237.652 129.901 236.912 130.036L209.319 135.028C208.579 135.161 207.817 134.995 207.199 134.567C206.582 134.139 206.159 133.483 206.025 132.743Z" fill="#74BBCA" fill-opacity="0.6"/>
<path d="M206.025 132.743C200.024 121.317 197.45 109.211 199.414 96.2061C199.281 95.4664 199.447 94.7042 199.875 94.0867C200.304 93.4692 200.959 93.0468 201.699 92.9121L229.293 87.9198C230.032 87.7869 230.795 87.9527 231.412 88.381C232.03 88.8094 232.452 89.4651 232.587 90.2045L239.197 126.742C239.33 127.482 239.164 128.244 238.736 128.861C238.307 129.479 237.652 129.901 236.912 130.036L209.319 135.028C208.579 135.161 207.817 134.995 207.199 134.567C206.582 134.139 206.159 133.483 206.025 132.743Z" fill="url(#paint18_linear_515_583)" style="mix-blend-mode:overlay"/>
<path opacity="0.2" d="M212.016 133.085C211.277 133.218 210.514 133.052 209.897 132.624C209.279 132.196 208.857 131.54 208.722 130.801C202.722 119.374 200.147 107.268 202.112 94.2631C202.027 93.777 202.072 93.2771 202.242 92.814L201.699 92.9123C200.96 93.0469 200.304 93.4693 199.876 94.0868C199.448 94.7043 199.282 95.4665 199.415 96.2062C197.45 109.211 200.024 121.317 206.025 132.744C206.16 133.483 206.582 134.139 207.2 134.567C207.817 134.995 208.579 135.161 209.319 135.028L236.913 130.036C237.403 129.946 237.86 129.727 238.238 129.403C238.617 129.079 238.903 128.661 239.067 128.191L212.016 133.085Z" fill="black"/>
<path d="M228.442 109.211L209.96 112.607C209.814 112.635 209.664 112.633 209.519 112.602C209.374 112.571 209.236 112.512 209.114 112.428C208.992 112.344 208.887 112.237 208.807 112.112C208.726 111.988 208.67 111.849 208.644 111.703C208.617 111.557 208.619 111.407 208.65 111.262C208.681 111.117 208.741 110.98 208.825 110.858C208.91 110.736 209.017 110.631 209.142 110.551C209.267 110.471 209.406 110.416 209.552 110.389L228.034 106.993C228.18 106.966 228.329 106.968 228.474 106.999C228.619 107.03 228.756 107.089 228.878 107.173C229 107.258 229.104 107.365 229.184 107.489C229.265 107.613 229.32 107.752 229.347 107.898C229.373 108.044 229.371 108.193 229.34 108.338C229.309 108.483 229.25 108.62 229.166 108.742C229.082 108.864 228.975 108.968 228.85 109.048C228.726 109.129 228.587 109.184 228.442 109.211V109.211Z" fill="white"/>
<path d="M212.908 105.779L208.842 106.527C208.548 106.58 208.245 106.514 208 106.345C207.754 106.175 207.586 105.915 207.532 105.621C207.478 105.327 207.543 105.025 207.712 104.779C207.881 104.533 208.141 104.364 208.434 104.309V104.309L212.5 103.562C212.794 103.509 213.097 103.574 213.342 103.744C213.587 103.914 213.756 104.174 213.81 104.467C213.863 104.761 213.799 105.064 213.63 105.31C213.461 105.556 213.201 105.725 212.908 105.779V105.779Z" fill="white"/>
<path d="M230.233 118.962L211.751 122.358C211.457 122.412 211.154 122.347 210.908 122.178C210.661 122.008 210.493 121.747 210.439 121.453C210.385 121.159 210.45 120.856 210.619 120.609C210.789 120.363 211.05 120.194 211.344 120.14V120.14L229.826 116.744C229.971 116.717 230.121 116.719 230.266 116.75C230.41 116.781 230.548 116.84 230.67 116.924C230.791 117.008 230.896 117.116 230.976 117.24C231.057 117.364 231.112 117.503 231.138 117.649C231.165 117.795 231.163 117.944 231.132 118.089C231.101 118.234 231.042 118.371 230.958 118.493C230.874 118.615 230.766 118.719 230.642 118.799C230.518 118.88 230.379 118.935 230.233 118.962V118.962Z" fill="white"/>
<path d="M229.337 114.086L210.855 117.483C210.709 117.51 210.56 117.507 210.415 117.476C210.27 117.445 210.133 117.386 210.011 117.302C209.889 117.218 209.785 117.111 209.705 116.987C209.624 116.862 209.569 116.723 209.542 116.578C209.516 116.432 209.518 116.283 209.549 116.138C209.58 115.993 209.639 115.856 209.723 115.734C209.807 115.612 209.914 115.508 210.039 115.427C210.163 115.347 210.302 115.292 210.447 115.265V115.265L228.929 111.868C229.075 111.842 229.224 111.844 229.369 111.875C229.514 111.906 229.651 111.965 229.773 112.049C229.895 112.133 229.999 112.24 230.08 112.365C230.16 112.489 230.215 112.628 230.242 112.773C230.269 112.919 230.267 113.068 230.236 113.213C230.205 113.358 230.145 113.495 230.061 113.617C229.977 113.739 229.87 113.843 229.746 113.924C229.621 114.004 229.482 114.059 229.337 114.086V114.086Z" fill="white"/>
<path d="M213.992 95.2768C216.554 95.6933 218.969 93.9534 219.386 91.3906C219.802 88.8278 218.062 86.4127 215.5 85.9963C212.937 85.5798 210.522 87.3197 210.105 89.8825C209.689 92.4452 211.429 94.8604 213.992 95.2768Z" fill="#484848"/>
<path d="M378.922 318.276C370.197 318.232 362.153 315.926 355.013 310.626C354.53 310.471 354.127 310.13 353.895 309.678C353.662 309.227 353.618 308.701 353.772 308.217L359.549 290.16C359.705 289.677 360.046 289.274 360.497 289.042C360.949 288.809 361.475 288.765 361.959 288.919L385.867 296.569C386.351 296.724 386.754 297.065 386.986 297.517C387.219 297.968 387.263 298.494 387.109 298.978L381.332 317.035C381.176 317.518 380.835 317.921 380.384 318.153C379.932 318.386 379.406 318.43 378.922 318.276V318.276Z" fill="#F2F2F2"/>
<path d="M378.922 318.276C370.197 318.232 362.153 315.926 355.013 310.626C354.53 310.471 354.127 310.13 353.895 309.678C353.662 309.227 353.618 308.701 353.772 308.217L359.549 290.16C359.705 289.677 360.046 289.274 360.497 289.042C360.949 288.809 361.475 288.765 361.959 288.919L385.867 296.569C386.351 296.724 386.754 297.065 386.986 297.517C387.219 297.968 387.263 298.494 387.109 298.978L381.332 317.035C381.176 317.518 380.835 317.921 380.384 318.153C379.932 318.386 379.406 318.43 378.922 318.276V318.276Z" fill="url(#paint19_linear_515_583)" style="mix-blend-mode:overlay"/>
<path opacity="0.2" d="M381.028 314.808C380.872 315.291 380.531 315.694 380.08 315.926C379.628 316.159 379.102 316.203 378.618 316.049C369.893 316.005 361.849 313.699 354.709 308.399C354.392 308.296 354.108 308.11 353.886 307.862L353.772 308.217C353.618 308.701 353.662 309.226 353.895 309.678C354.127 310.13 354.53 310.471 355.013 310.626C362.153 315.926 370.197 318.231 378.922 318.276C379.406 318.43 379.932 318.386 380.384 318.153C380.835 317.92 381.176 317.518 381.332 317.034L387.109 298.978C387.21 298.657 387.225 298.315 387.152 297.986C387.078 297.657 386.919 297.354 386.691 297.106L381.028 314.808Z" fill="black"/>
<path d="M371.99 297.425L368.152 309.535C368.123 309.631 368.074 309.72 368.01 309.797C367.946 309.874 367.867 309.938 367.779 309.984C367.69 310.031 367.593 310.059 367.493 310.068C367.393 310.077 367.293 310.067 367.197 310.037C367.101 310.007 367.013 309.958 366.936 309.894C366.859 309.83 366.795 309.751 366.749 309.662C366.702 309.574 366.674 309.477 366.665 309.377C366.656 309.277 366.667 309.176 366.697 309.081L366.699 309.075L370.537 296.964C370.599 296.772 370.734 296.613 370.913 296.52C371.092 296.428 371.301 296.41 371.493 296.471C371.685 296.532 371.845 296.667 371.938 296.845C372.031 297.024 372.05 297.232 371.99 297.425V297.425Z" fill="white"/>
<path d="M365.012 305.608L364.168 308.273C364.138 308.368 364.089 308.457 364.025 308.534C363.961 308.611 363.882 308.674 363.794 308.721C363.705 308.767 363.608 308.796 363.508 308.805C363.409 308.813 363.308 308.803 363.213 308.773C363.117 308.743 363.028 308.695 362.952 308.631C362.875 308.566 362.811 308.488 362.765 308.399C362.718 308.31 362.69 308.213 362.681 308.114C362.672 308.014 362.683 307.914 362.712 307.818L362.714 307.812L363.559 305.148C363.588 305.052 363.637 304.963 363.701 304.887C363.765 304.81 363.844 304.746 363.932 304.7C364.021 304.653 364.118 304.625 364.218 304.616C364.317 304.607 364.418 304.618 364.513 304.647C364.609 304.677 364.698 304.726 364.775 304.79C364.851 304.854 364.915 304.933 364.961 305.021C365.008 305.11 365.036 305.207 365.045 305.307C365.054 305.406 365.044 305.507 365.014 305.602L365.012 305.608Z" fill="white"/>
<path d="M378.378 299.45L374.541 311.56C374.511 311.656 374.462 311.745 374.398 311.822C374.334 311.898 374.255 311.962 374.167 312.008C374.078 312.055 373.981 312.083 373.881 312.092C373.782 312.101 373.681 312.091 373.586 312.061C373.49 312.031 373.401 311.982 373.325 311.918C373.248 311.854 373.184 311.776 373.138 311.687C373.091 311.598 373.063 311.501 373.054 311.402C373.045 311.302 373.056 311.201 373.085 311.106L373.087 311.1L376.925 298.989C376.955 298.893 377.003 298.804 377.067 298.727C377.131 298.65 377.21 298.587 377.299 298.54C377.387 298.493 377.485 298.465 377.584 298.456C377.684 298.447 377.785 298.457 377.88 298.487C377.976 298.517 378.065 298.566 378.142 298.63C378.219 298.694 378.282 298.773 378.329 298.862C378.375 298.951 378.404 299.048 378.412 299.148C378.421 299.248 378.41 299.348 378.38 299.444L378.378 299.45Z" fill="white"/>
<path d="M375.185 298.437L371.348 310.548C371.318 310.644 371.27 310.733 371.205 310.81C371.141 310.887 371.063 310.95 370.974 310.997C370.885 311.043 370.788 311.072 370.688 311.081C370.589 311.09 370.488 311.079 370.392 311.049C370.297 311.02 370.208 310.971 370.131 310.907C370.054 310.843 369.991 310.764 369.944 310.675C369.898 310.586 369.869 310.489 369.86 310.39C369.852 310.29 369.862 310.189 369.892 310.094L369.894 310.088L373.732 297.977C373.762 297.881 373.81 297.793 373.875 297.716C373.939 297.639 374.017 297.575 374.106 297.529C374.195 297.483 374.292 297.454 374.391 297.445C374.491 297.436 374.591 297.447 374.687 297.477C374.783 297.506 374.871 297.555 374.948 297.619C375.025 297.683 375.088 297.762 375.135 297.85C375.181 297.939 375.21 298.036 375.219 298.136C375.228 298.235 375.217 298.336 375.187 298.431L375.185 298.437Z" fill="white"/>
<path d="M356.555 302.884C358.311 302.884 359.734 301.461 359.734 299.706C359.734 297.95 358.311 296.527 356.555 296.527C354.8 296.527 353.377 297.95 353.377 299.706C353.377 301.461 354.8 302.884 356.555 302.884Z" fill="#CCCCCC"/>
<path d="M234.704 192.559C234.832 191.417 234.291 190.42 233.497 190.331C232.703 190.243 231.956 191.096 231.829 192.237C231.701 193.379 232.241 194.376 233.035 194.465C233.829 194.554 234.577 193.7 234.704 192.559Z" fill="#E6E6E6"/>
<path d="M362.928 228.951C357.684 221.977 354.654 214.178 354.554 205.286C354.386 204.807 354.414 204.28 354.632 203.822C354.851 203.363 355.243 203.01 355.722 202.84L373.594 196.516C374.073 196.347 374.6 196.375 375.059 196.594C375.517 196.813 375.87 197.205 376.04 197.684L384.413 221.349C384.582 221.828 384.554 222.355 384.336 222.813C384.117 223.272 383.725 223.625 383.246 223.795L365.374 230.118C364.895 230.287 364.368 230.259 363.909 230.041C363.451 229.822 363.098 229.43 362.928 228.951V228.951Z" fill="#F2F2F2"/>
<path d="M362.928 228.951C357.684 221.977 354.654 214.178 354.554 205.286C354.386 204.807 354.414 204.28 354.632 203.822C354.851 203.363 355.243 203.01 355.722 202.84L373.594 196.516C374.073 196.347 374.6 196.375 375.059 196.594C375.517 196.813 375.87 197.205 376.04 197.684L384.413 221.349C384.582 221.828 384.554 222.355 384.336 222.813C384.117 223.272 383.725 223.625 383.246 223.795L365.374 230.118C364.895 230.287 364.368 230.259 363.909 230.041C363.451 229.822 363.098 229.43 362.928 228.951V228.951Z" fill="url(#paint20_linear_515_583)" style="mix-blend-mode:overlay"/>
<path opacity="0.2" d="M366.963 228.529C366.484 228.698 365.957 228.67 365.499 228.451C365.04 228.233 364.687 227.841 364.517 227.362C359.274 220.388 356.243 212.589 356.144 203.697C356.034 203.382 356.01 203.043 356.074 202.716L355.722 202.84C355.243 203.01 354.851 203.363 354.632 203.822C354.414 204.28 354.386 204.807 354.554 205.286C354.654 214.178 357.684 221.977 362.928 228.951C363.098 229.43 363.451 229.822 363.909 230.041C364.368 230.259 364.895 230.288 365.374 230.119L383.246 223.795C383.563 223.681 383.845 223.486 384.062 223.229C384.279 222.972 384.425 222.662 384.484 222.33L366.963 228.529Z" fill="black"/>
<path d="M375.337 210.817L363.372 215.087C363.182 215.155 362.972 215.145 362.789 215.058C362.607 214.972 362.466 214.816 362.398 214.626C362.33 214.435 362.34 214.226 362.427 214.043C362.514 213.86 362.669 213.72 362.859 213.652L374.824 209.381C374.919 209.347 375.019 209.332 375.119 209.337C375.219 209.342 375.317 209.367 375.407 209.41C375.498 209.453 375.579 209.513 375.646 209.587C375.713 209.661 375.765 209.748 375.799 209.842C375.832 209.937 375.847 210.037 375.842 210.137C375.837 210.237 375.812 210.335 375.77 210.425C375.727 210.516 375.666 210.597 375.592 210.664C375.518 210.731 375.431 210.783 375.337 210.817V210.817Z" fill="white"/>
<path d="M364.599 210.211L361.967 211.15C361.872 211.184 361.772 211.199 361.672 211.194C361.572 211.189 361.474 211.165 361.384 211.122C361.293 211.079 361.212 211.019 361.145 210.945C361.078 210.871 361.026 210.784 360.992 210.69C360.958 210.596 360.943 210.496 360.948 210.396C360.953 210.296 360.978 210.198 361.02 210.107C361.063 210.017 361.123 209.936 361.197 209.868C361.272 209.801 361.358 209.749 361.452 209.715L361.454 209.715L364.086 208.775C364.277 208.707 364.486 208.718 364.669 208.805C364.851 208.891 364.992 209.047 365.06 209.237C365.128 209.427 365.117 209.637 365.031 209.819C364.944 210.002 364.789 210.143 364.599 210.211V210.211Z" fill="white"/>
<path d="M377.59 217.129L365.625 221.4C365.531 221.433 365.431 221.448 365.331 221.443C365.231 221.439 365.133 221.414 365.042 221.371C364.952 221.329 364.87 221.268 364.803 221.194C364.736 221.12 364.684 221.033 364.65 220.939C364.616 220.845 364.602 220.745 364.606 220.645C364.611 220.545 364.636 220.447 364.678 220.356C364.721 220.266 364.781 220.185 364.856 220.118C364.93 220.05 365.016 219.998 365.111 219.964L365.112 219.964L377.077 215.693C377.268 215.625 377.477 215.636 377.66 215.723C377.842 215.809 377.983 215.965 378.051 216.155C378.118 216.345 378.108 216.555 378.022 216.737C377.935 216.92 377.78 217.061 377.59 217.129V217.129Z" fill="white"/>
<path d="M376.463 213.973L364.498 218.244C364.404 218.277 364.304 218.292 364.204 218.287C364.104 218.282 364.006 218.258 363.915 218.215C363.825 218.172 363.743 218.112 363.676 218.038C363.609 217.964 363.557 217.877 363.523 217.783C363.489 217.689 363.475 217.589 363.479 217.489C363.484 217.389 363.509 217.291 363.552 217.2C363.594 217.11 363.654 217.029 363.729 216.961C363.803 216.894 363.889 216.842 363.984 216.808L363.985 216.808L375.95 212.537C376.141 212.469 376.35 212.479 376.533 212.565C376.716 212.652 376.857 212.807 376.925 212.997C376.993 213.188 376.983 213.397 376.897 213.58C376.81 213.763 376.655 213.904 376.464 213.972L376.463 213.973Z" fill="white"/>
<path d="M364.182 203.085C365.938 203.085 367.361 201.662 367.361 199.906C367.361 198.151 365.938 196.728 364.182 196.728C362.427 196.728 361.004 198.151 361.004 199.906C361.004 201.662 362.427 203.085 364.182 203.085Z" fill="#CCCCCC"/>
<path d="M381.661 278.985C384.183 278.471 385.938 276.633 385.581 274.878C385.224 273.124 382.89 272.117 380.368 272.631C377.845 273.144 376.09 274.982 376.447 276.737C376.804 278.492 379.139 279.498 381.661 278.985Z" fill="#FFDBC4"/>
<path d="M409.194 265.937C411.716 265.424 413.471 263.585 413.114 261.831C412.757 260.076 410.423 259.07 407.901 259.583C405.379 260.097 403.623 261.935 403.981 263.69C404.338 265.444 406.672 266.45 409.194 265.937Z" fill="#3F3D56"/>
<path d="M365.536 258.692C368.058 258.179 369.813 256.341 369.456 254.586C369.099 252.832 366.765 251.825 364.243 252.339C361.72 252.852 359.965 254.69 360.322 256.445C360.679 258.2 363.014 259.206 365.536 258.692Z" fill="#74BBCA"/>
<path d="M352.698 253.041C353.765 252.666 354.194 251.118 353.655 249.583C353.116 248.048 351.813 247.108 350.746 247.483C349.678 247.858 349.249 249.406 349.788 250.941C350.327 252.476 351.63 253.416 352.698 253.041Z" fill="#E6E6E6"/>
<path d="M342.153 236.928C343.22 236.553 343.649 235.005 343.11 233.47C342.571 231.935 341.269 230.995 340.201 231.37C339.133 231.745 338.704 233.293 339.243 234.828C339.782 236.363 341.085 237.303 342.153 236.928Z" fill="#F79C91"/>
<path d="M386.008 256.187C387.076 255.812 387.504 254.264 386.965 252.729C386.426 251.194 385.124 250.254 384.056 250.629C382.989 251.004 382.56 252.552 383.099 254.087C383.638 255.621 384.94 256.562 386.008 256.187Z" fill="#E6E6E6"/>
<path d="M374.696 268.032C375.763 267.657 376.192 266.108 375.653 264.574C375.114 263.039 373.812 262.099 372.744 262.473C371.676 262.848 371.247 264.397 371.786 265.931C372.325 267.466 373.628 268.406 374.696 268.032Z" fill="#FFD98E"/>
<path d="M398.469 273.853C399.537 273.478 399.965 271.93 399.426 270.395C398.887 268.861 397.585 267.92 396.517 268.295C395.45 268.67 395.021 270.218 395.56 271.753C396.099 273.288 397.401 274.228 398.469 273.853Z" fill="#484848"/>
<path d="M223.123 165.896C223.36 164.121 221.484 162.406 218.933 162.066C216.381 161.725 214.121 162.888 213.884 164.662C213.647 166.437 215.523 168.152 218.075 168.493C220.626 168.833 222.886 167.671 223.123 165.896Z" fill="white"/>
<path d="M192.834 169.212C193.071 167.437 191.195 165.723 188.644 165.382C186.092 165.041 183.832 166.204 183.595 167.979C183.358 169.754 185.234 171.468 187.785 171.809C190.337 172.15 192.597 170.987 192.834 169.212Z" fill="#3F3D56"/>
<path d="M231.717 190.347C231.954 188.572 230.078 186.857 227.526 186.517C224.975 186.176 222.715 187.339 222.478 189.114C222.241 190.888 224.117 192.603 226.668 192.944C229.22 193.284 231.48 192.122 231.717 190.347Z" fill="#F79C91"/>
<path d="M239.871 198.998C239.864 197.371 238.941 196.056 237.809 196.061C236.678 196.066 235.766 197.388 235.773 199.015C235.78 200.642 236.703 201.957 237.834 201.952C238.966 201.947 239.878 200.625 239.871 198.998Z" fill="#E6E6E6"/>
<path d="M244.558 217.675C244.551 216.048 243.628 214.734 242.497 214.738C241.365 214.743 240.453 216.066 240.46 217.692C240.467 219.319 241.39 220.634 242.522 220.629C243.653 220.624 244.565 219.302 244.558 217.675Z" fill="#5ABA47"/>
<path d="M209.423 185.12C209.417 183.494 208.494 182.179 207.362 182.184C206.23 182.188 205.319 183.511 205.326 185.138C205.332 186.764 206.255 188.079 207.387 188.074C208.518 188.07 209.43 186.747 209.423 185.12Z" fill="#E6E6E6"/>
<path d="M223.99 177.632C223.983 176.005 223.06 174.69 221.928 174.695C220.797 174.7 219.885 176.022 219.892 177.649C219.899 179.276 220.822 180.59 221.953 180.586C223.085 180.581 223.997 179.258 223.99 177.632Z" fill="#74BBCA"/>
<path d="M203.433 164.349C203.426 162.723 202.503 161.408 201.372 161.413C200.24 161.417 199.328 162.74 199.335 164.367C199.342 165.993 200.265 167.308 201.397 167.303C202.528 167.299 203.44 165.976 203.433 164.349Z" fill="#484848"/>
</g>
<defs>
<filter id="filter0_f_515_583" x="35.0863" y="-58.9137" width="530.591" height="514.039" filterUnits="userSpaceOnUse" color-interpolation-filters="sRGB">
<feFlood flood-opacity="0" result="BackgroundImageFix"/>
<feBlend mode="normal" in="SourceGraphic" in2="BackgroundImageFix" result="shape"/>
<feGaussianBlur stdDeviation="91.9569" result="effect1_foregroundBlur_515_583"/>
</filter>
<filter id="filter1_f_515_583" x="31" y="96.8301" width="492.443" height="294.17" filterUnits="userSpaceOnUse" color-interpolation-filters="sRGB">
<feFlood flood-opacity="0" result="BackgroundImageFix"/>
<feBlend mode="normal" in="SourceGraphic" in2="BackgroundImageFix" result="shape"/>
<feGaussianBlur stdDeviation="4" result="effect1_foregroundBlur_515_583"/>
</filter>
<filter id="filter2_i_515_583" x="321.104" y="125.793" width="68.7341" height="46.182" filterUnits="userSpaceOnUse" color-interpolation-filters="sRGB">
<feFlood flood-opacity="0" result="BackgroundImageFix"/>
<feBlend mode="normal" in="SourceGraphic" in2="BackgroundImageFix" result="shape"/>
<feColorMatrix in="SourceAlpha" type="matrix" values="0 0 0 0 0 0 0 0 0 0 0 0 0 0 0 0 0 0 127 0" result="hardAlpha"/>
<feOffset dx="-2.54264" dy="1.27132"/>
<feGaussianBlur stdDeviation="2.54264"/>
<feComposite in2="hardAlpha" operator="arithmetic" k2="-1" k3="1"/>
<feColorMatrix type="matrix" values="0 0 0 0 0 0 0 0 0 0 0 0 0 0 0 0 0 0 0.24 0"/>
<feBlend mode="overlay" in2="shape" result="effect1_innerShadow_515_583"/>
</filter>
<filter id="filter3_i_515_583" x="241.754" y="125.146" width="70.6755" height="43.5233" filterUnits="userSpaceOnUse" color-interpolation-filters="sRGB">
<feFlood flood-opacity="0" result="BackgroundImageFix"/>
<feBlend mode="normal" in="SourceGraphic" in2="BackgroundImageFix" result="shape"/>
<feColorMatrix in="SourceAlpha" type="matrix" values="0 0 0 0 0 0 0 0 0 0 0 0 0 0 0 0 0 0 127 0" result="hardAlpha"/>
<feOffset dx="2.54264" dy="1.27132"/>
<feGaussianBlur stdDeviation="2.54264"/>
<feComposite in2="hardAlpha" operator="arithmetic" k2="-1" k3="1"/>
<feColorMatrix type="matrix" values="0 0 0 0 0 0 0 0 0 0 0 0 0 0 0 0 0 0 0.24 0"/>
<feBlend mode="overlay" in2="shape" result="effect1_innerShadow_515_583"/>
</filter>
<filter id="filter4_i_515_583" x="287.203" y="109.007" width="56.1465" height="93.9412" filterUnits="userSpaceOnUse" color-interpolation-filters="sRGB">
<feFlood flood-opacity="0" result="BackgroundImageFix"/>
<feBlend mode="normal" in="SourceGraphic" in2="BackgroundImageFix" result="shape"/>
<feColorMatrix in="SourceAlpha" type="matrix" values="0 0 0 0 0 0 0 0 0 0 0 0 0 0 0 0 0 0 127 0" result="hardAlpha"/>
<feOffset dy="-5.08529"/>
<feGaussianBlur stdDeviation="2.54264"/>
<feComposite in2="hardAlpha" operator="arithmetic" k2="-1" k3="1"/>
<feColorMatrix type="matrix" values="0 0 0 0 0 0 0 0 0 0 0 0 0 0 0 0 0 0 0.24 0"/>
<feBlend mode="overlay" in2="shape" result="effect1_innerShadow_515_583"/>
</filter>
<radialGradient id="paint0_angular_515_583" cx="0" cy="0" r="1" gradientUnits="userSpaceOnUse" gradientTransform="translate(300.382 198.106) rotate(90) scale(73.1057 81.3818)">
<stop stop-color="#6CC75A"/>
<stop offset="0.341667" stop-color="#FFD98E"/>
<stop offset="0.701042" stop-color="#F79C91"/>
<stop offset="1" stop-color="#74BBCA"/>
</radialGradient>
<linearGradient id="paint1_linear_515_583" x1="148.98" y1="161.086" x2="254.501" y2="207.897" gradientUnits="userSpaceOnUse">
<stop/>
<stop offset="1" stop-opacity="0"/>
</linearGradient>
<linearGradient id="paint2_linear_515_583" x1="311.521" y1="320.17" x2="311.521" y2="220.568" gradientUnits="userSpaceOnUse">
<stop stop-opacity="0.4"/>
<stop offset="1" stop-opacity="0"/>
</linearGradient>
<linearGradient id="paint3_linear_515_583" x1="290.797" y1="266.532" x2="290.797" y2="174.953" gradientUnits="userSpaceOnUse">
<stop stop-opacity="0.4"/>
<stop offset="1" stop-opacity="0"/>
</linearGradient>
<linearGradient id="paint4_linear_515_583" x1="86.7055" y1="232.516" x2="163.054" y2="259.26" gradientUnits="userSpaceOnUse">
<stop/>
<stop offset="1" stop-opacity="0"/>
</linearGradient>
<linearGradient id="paint5_linear_515_583" x1="26.5245" y1="220.742" x2="92.1737" y2="347.514" gradientUnits="userSpaceOnUse">
<stop/>
<stop offset="1" stop-opacity="0"/>
</linearGradient>
<linearGradient id="paint6_linear_515_583" x1="244.507" y1="135.977" x2="244.189" y2="125.171" gradientUnits="userSpaceOnUse">
<stop/>
<stop offset="1" stop-opacity="0"/>
</linearGradient>
<linearGradient id="paint7_linear_515_583" x1="391.028" y1="145.512" x2="387.587" y2="137.913" gradientUnits="userSpaceOnUse">
<stop/>
<stop offset="1" stop-opacity="0"/>
</linearGradient>
<linearGradient id="paint8_linear_515_583" x1="286.78" y1="203.039" x2="302.451" y2="185.165" gradientUnits="userSpaceOnUse">
<stop/>
<stop offset="1" stop-opacity="0"/>
</linearGradient>
<linearGradient id="paint9_linear_515_583" x1="225.12" y1="334.939" x2="261.574" y2="361.455" gradientUnits="userSpaceOnUse">
<stop/>
<stop offset="1" stop-opacity="0"/>
</linearGradient>
<linearGradient id="paint10_linear_515_583" x1="402.151" y1="335.893" x2="364.647" y2="396.916" gradientUnits="userSpaceOnUse">
<stop/>
<stop offset="1" stop-opacity="0"/>
</linearGradient>
<linearGradient id="paint11_linear_515_583" x1="153.29" y1="234.823" x2="371.957" y2="244.358" gradientUnits="userSpaceOnUse">
<stop/>
<stop offset="1" stop-opacity="0"/>
</linearGradient>
<linearGradient id="paint12_linear_515_583" x1="301.141" y1="170.896" x2="373.925" y2="135.935" gradientUnits="userSpaceOnUse">
<stop/>
<stop offset="1" stop-opacity="0"/>
</linearGradient>
<linearGradient id="paint13_linear_515_583" x1="313.975" y1="190.406" x2="269.717" y2="118.139" gradientUnits="userSpaceOnUse">
<stop/>
<stop offset="1" stop-opacity="0"/>
</linearGradient>
<linearGradient id="paint14_linear_515_583" x1="313.478" y1="126.442" x2="338.904" y2="204.629" gradientUnits="userSpaceOnUse">
<stop stop-opacity="0.9"/>
<stop offset="1" stop-opacity="0"/>
</linearGradient>
<radialGradient id="paint15_radial_515_583" cx="0" cy="0" r="1" gradientUnits="userSpaceOnUse" gradientTransform="translate(313.158 109.597) rotate(-76.5043) scale(24.5142 21.338)">
<stop/>
<stop offset="1" stop-opacity="0"/>
</radialGradient>
<linearGradient id="paint16_linear_515_583" x1="391.664" y1="138.838" x2="400.563" y2="100.38" gradientUnits="userSpaceOnUse">
<stop/>
<stop offset="1" stop-opacity="0"/>
</linearGradient>
<linearGradient id="paint17_linear_515_583" x1="251.5" y1="82.8994" x2="258.175" y2="34.2713" gradientUnits="userSpaceOnUse">
<stop/>
<stop offset="1" stop-opacity="0"/>
</linearGradient>
<linearGradient id="paint18_linear_515_583" x1="201.919" y1="86.3956" x2="266.756" y2="132.163" gradientUnits="userSpaceOnUse">
<stop/>
<stop offset="1" stop-opacity="0"/>
</linearGradient>
<linearGradient id="paint19_linear_515_583" x1="354.48" y1="290.628" x2="402.443" y2="320.46" gradientUnits="userSpaceOnUse">
<stop/>
<stop offset="1" stop-opacity="0"/>
</linearGradient>
<linearGradient id="paint20_linear_515_583" x1="355.162" y1="198.468" x2="403.392" y2="221.978" gradientUnits="userSpaceOnUse">
<stop/>
<stop offset="1" stop-opacity="0"/>
</linearGradient>
<clipPath id="clip0_515_583">
<rect width="555" height="416" fill="white"/>
</clipPath>
</defs>
</svg>
