<svg width="555" height="416" viewBox="0 0 555 416" fill="none" xmlns="http://www.w3.org/2000/svg">
<g clip-path="url(#clip0_515_271)">
<rect width="555" height="416" fill="white"/>
<g filter="url(#filter0_f_515_271)">
<path fill-rule="evenodd" clip-rule="evenodd" d="M281.853 125.256C325.9 122.024 371.384 149.634 380.799 192.622C388.742 228.888 345.98 250.103 312.968 267.314C294.923 276.721 275.723 267.553 258.841 256.204C238.933 242.819 215.336 228.028 219.478 204.46C225.9 167.916 244.714 127.982 281.853 125.256Z" fill="url(#paint0_angular_515_271)"/>
</g>
<path d="M179.218 306.571C174.596 309.017 169.423 310.23 164.196 310.095C158.969 309.961 153.864 308.482 149.374 305.802C137.911 298.778 132.609 285.173 128.06 272.522C123.574 260.049 119.088 247.576 114.602 235.103L132.349 243.773C145.111 250.007 158.173 256.459 167.911 266.799C177.649 277.139 183.504 292.368 178.936 305.818" fill="#ADD9AD"/>
<path d="M179.218 306.571C174.596 309.017 169.423 310.23 164.196 310.095C158.969 309.961 153.864 308.482 149.374 305.802C137.911 298.778 132.609 285.173 128.06 272.522C123.574 260.049 119.088 247.576 114.602 235.103L132.349 243.773C145.111 250.007 158.173 256.459 167.911 266.799C177.649 277.139 183.504 292.368 178.936 305.818" fill="url(#paint1_linear_515_271)" fill-opacity="0.8" style="mix-blend-mode:overlay"/>
<path d="M184.833 353.474C184.686 341.369 184.562 329.105 181.625 317.287C179.017 306.792 174.212 296.879 166.323 289.342C162.137 285.35 157.286 282.119 151.989 279.794C150.608 279.186 149.746 281.36 151.121 281.966C160.288 286.005 167.936 292.851 172.962 301.518C178.523 311.159 180.841 322.229 181.776 333.215C182.341 339.859 182.43 346.53 182.511 353.193C182.484 353.499 182.575 353.804 182.764 354.045C182.954 354.287 183.228 354.447 183.531 354.495C183.839 354.53 184.148 354.443 184.392 354.252C184.635 354.061 184.794 353.781 184.833 353.474V353.474Z" fill="white" style="mix-blend-mode:color-burn"/>
<path d="M184.833 353.474C184.686 341.369 184.562 329.105 181.625 317.287C179.017 306.792 174.212 296.879 166.323 289.342C162.137 285.35 157.286 282.119 151.989 279.794C150.608 279.186 149.746 281.36 151.121 281.966C160.288 286.005 167.936 292.851 172.962 301.518C178.523 311.159 180.841 322.229 181.776 333.215C182.341 339.859 182.43 346.53 182.511 353.193C182.484 353.499 182.575 353.804 182.764 354.045C182.954 354.287 183.228 354.447 183.531 354.495C183.839 354.53 184.148 354.443 184.392 354.252C184.635 354.061 184.794 353.781 184.833 353.474V353.474Z" fill="#5ABA47" fill-opacity="0.4"/>
<path d="M166.007 334.833C164.39 338.326 161.902 341.344 158.78 343.596C155.659 345.848 152.01 347.259 148.185 347.692C138.339 348.691 129.167 343.087 120.86 337.707L96.2904 321.795L110.551 318.957C120.806 316.917 131.332 314.87 141.647 316.583C151.962 318.295 162.182 324.603 165.506 334.517" fill="#ADD9AD"/>
<path d="M166.007 334.833C164.39 338.326 161.902 341.344 158.78 343.596C155.659 345.848 152.01 347.259 148.185 347.692C138.339 348.691 129.167 343.087 120.86 337.707L96.2904 321.795L110.551 318.957C120.806 316.917 131.332 314.87 141.647 316.583C151.962 318.295 162.182 324.603 165.506 334.517" fill="url(#paint2_linear_515_271)" fill-opacity="0.8" style="mix-blend-mode:overlay"/>
<path d="M190.454 359.604C180.541 346.908 169.143 332.856 152.161 330.361C147.44 329.672 142.631 329.892 137.992 331.009C136.53 331.358 137.242 333.587 138.701 333.238C146.482 331.404 154.657 332.308 161.85 335.796C168.768 339.13 174.546 344.339 179.627 350.021C182.739 353.501 185.611 357.184 188.483 360.862C189.401 362.037 191.383 360.793 190.454 359.604V359.604Z" fill="white" style="mix-blend-mode:color-burn"/>
<path d="M190.454 359.604C180.541 346.908 169.143 332.856 152.161 330.361C147.44 329.672 142.631 329.892 137.992 331.009C136.53 331.358 137.242 333.587 138.701 333.238C146.482 331.404 154.657 332.308 161.85 335.796C168.768 339.13 174.546 344.339 179.627 350.021C182.739 353.501 185.611 357.184 188.483 360.862C189.401 362.037 191.383 360.793 190.454 359.604V359.604Z" fill="#5ABA47" fill-opacity="0.4"/>
<path d="M332.164 124.301L400.399 110.005L401.286 109.819C401.738 109.724 402.207 109.758 402.64 109.918C403.073 110.077 403.452 110.356 403.734 110.722C404.016 111.087 404.189 111.525 404.233 111.984C404.277 112.444 404.191 112.906 403.984 113.319L376.6 168.105C376.423 168.457 376.163 168.761 375.844 168.992C375.525 169.223 375.155 169.374 374.765 169.432C374.374 169.491 373.974 169.453 373.601 169.322C373.228 169.192 372.892 168.973 372.623 168.683L353.947 148.756C353.814 148.61 353.653 148.494 353.473 148.414C353.293 148.334 353.098 148.293 352.901 148.292C352.634 148.286 352.37 148.354 352.138 148.487C351.905 148.62 351.714 148.814 351.583 149.047L347.692 156.145C347.443 156.618 347.043 156.995 346.556 157.214C346.069 157.434 345.522 157.485 345.003 157.358L344.983 157.353C344.458 157.239 343.986 156.951 343.644 156.535C343.301 156.12 343.109 155.602 343.097 155.064L342.423 138.624C342.415 138.419 342.365 138.217 342.276 138.032C342.18 137.849 342.05 137.686 341.893 137.553L331.103 128.589C330.749 128.294 330.484 127.905 330.34 127.467C330.196 127.029 330.179 126.56 330.289 126.112C330.4 125.664 330.635 125.257 330.966 124.937C331.298 124.616 331.713 124.396 332.164 124.301V124.301ZM331.727 127.836L342.516 136.8C342.657 136.915 342.784 137.045 342.895 137.188L400.514 111.468C400.565 111.445 400.618 111.427 400.672 111.414C400.894 111.358 401.128 111.382 401.335 111.481C401.541 111.579 401.707 111.747 401.803 111.955C401.898 112.163 401.919 112.398 401.86 112.619C401.801 112.84 401.666 113.034 401.48 113.166L354.026 147.592C354.265 147.718 354.48 147.885 354.663 148.084L373.338 168.012C373.5 168.184 373.702 168.315 373.925 168.393C374.149 168.471 374.388 168.494 374.622 168.46C374.856 168.426 375.079 168.336 375.271 168.198C375.463 168.059 375.619 167.876 375.725 167.665L403.108 112.878C403.231 112.631 403.281 112.354 403.254 112.079C403.227 111.804 403.123 111.542 402.954 111.324C402.785 111.105 402.559 110.938 402.3 110.842C402.041 110.746 401.76 110.725 401.49 110.781L400.582 110.971L332.368 125.262C332.097 125.319 331.848 125.451 331.648 125.643C331.449 125.835 331.308 126.079 331.241 126.348C331.174 126.617 331.184 126.898 331.27 127.162C331.356 127.425 331.514 127.658 331.727 127.836L331.727 127.836Z" fill="#5ABA47" fill-opacity="0.1"/>
<path d="M332.164 124.301L400.399 110.005L401.286 109.819C401.738 109.724 402.207 109.758 402.64 109.918C403.073 110.077 403.452 110.356 403.734 110.722C404.016 111.087 404.189 111.525 404.233 111.984C404.277 112.444 404.191 112.906 403.984 113.319L376.6 168.105C376.423 168.457 376.163 168.761 375.844 168.992C375.525 169.223 375.155 169.374 374.765 169.432C374.374 169.491 373.974 169.453 373.601 169.322C373.228 169.192 372.892 168.973 372.623 168.683L353.947 148.756C353.814 148.61 353.653 148.494 353.473 148.414C353.293 148.334 353.098 148.293 352.901 148.292C352.634 148.286 352.37 148.354 352.138 148.487C351.905 148.62 351.714 148.814 351.583 149.047L347.692 156.145C347.443 156.618 347.043 156.995 346.556 157.214C346.069 157.434 345.522 157.485 345.003 157.358L344.983 157.353C344.458 157.239 343.986 156.951 343.644 156.535C343.301 156.12 343.109 155.602 343.097 155.064L342.423 138.624C342.415 138.419 342.365 138.217 342.276 138.032C342.18 137.849 342.05 137.686 341.893 137.553L331.103 128.589C330.749 128.294 330.484 127.905 330.34 127.467C330.196 127.029 330.179 126.56 330.289 126.112C330.4 125.664 330.635 125.257 330.966 124.937C331.298 124.616 331.713 124.396 332.164 124.301V124.301ZM331.727 127.836L342.516 136.8C342.657 136.915 342.784 137.045 342.896 137.188C342.996 137.315 343.083 137.453 343.154 137.599C343.229 137.748 343.287 137.904 343.329 138.066L343.328 138.071C343.372 138.239 343.397 138.411 343.402 138.585L344.075 155.025C344.08 155.349 344.194 155.661 344.4 155.91C344.605 156.16 344.889 156.332 345.206 156.399L345.215 156.401C345.527 156.48 345.856 156.452 346.15 156.321C346.443 156.189 346.684 155.963 346.833 155.678L350.725 148.576C350.926 148.21 351.217 147.902 351.57 147.681C351.923 147.46 352.326 147.332 352.743 147.31L352.747 147.311C352.803 147.309 352.859 147.307 352.914 147.309C353.302 147.312 353.684 147.409 354.026 147.592C354.265 147.718 354.48 147.885 354.663 148.084L373.338 168.012C373.5 168.184 373.702 168.315 373.925 168.393C374.149 168.471 374.388 168.494 374.622 168.46C374.856 168.426 375.079 168.336 375.271 168.198C375.463 168.059 375.619 167.876 375.725 167.665L403.108 112.878C403.231 112.631 403.281 112.354 403.254 112.079C403.227 111.804 403.123 111.542 402.954 111.324C402.785 111.105 402.559 110.938 402.3 110.842C402.041 110.746 401.76 110.725 401.49 110.781L400.582 110.971L332.368 125.262C332.097 125.319 331.848 125.451 331.648 125.643C331.449 125.835 331.308 126.079 331.241 126.348C331.174 126.617 331.184 126.898 331.27 127.162C331.356 127.425 331.514 127.658 331.727 127.836L331.727 127.836Z" fill="#5ABA47"/>
<path d="M342.677 137.285L343.077 138.18L343.328 138.071L343.329 138.066L400.901 112.372L352.747 147.312L352.742 147.311L352.615 147.407L353.188 148.201L354.025 147.593L401.479 113.167C401.666 113.034 401.8 112.84 401.859 112.619C401.918 112.398 401.898 112.163 401.802 111.955C401.707 111.748 401.541 111.58 401.335 111.481C401.128 111.382 400.894 111.359 400.672 111.414C400.617 111.427 400.564 111.446 400.513 111.469L342.895 137.188L342.677 137.285Z" fill="#484848"/>
<path d="M230.855 129.638C228.256 130.628 225.602 131.467 222.907 132.151C219.346 133.019 217.336 133.421 213.899 132.088C213.778 132.041 213.663 131.995 213.554 131.949C207.04 129.179 201.472 124.576 197.527 118.699C193.582 112.821 191.431 105.924 191.335 98.8464C191.318 98.6036 191.318 98.3483 191.318 98.0993C191.314 96.8997 191.372 95.7008 191.49 94.507C191.64 92.8809 191.9 91.2668 192.268 89.6758L192.234 89.6695C189.451 86.8243 188.381 82.927 188.736 79.011C188.979 76.3561 189.821 73.791 191.2 71.509C192.578 69.2271 194.457 67.2877 196.694 65.8372C200.199 63.6331 204.152 62.238 208.264 61.753C209.369 61.6257 210.479 61.5613 211.591 61.56H222.033C224.19 61.0551 226.381 60.7097 228.589 60.5265H228.606C249.623 58.7833 266.198 72.7167 264.652 89.6695C264.64 89.6882 264.623 89.7069 264.612 89.7256C264.165 90.454 263.77 91.145 263.421 91.805C263.083 92.4213 262.797 93.0128 262.551 93.5731C260.633 97.9063 269.747 165.135 266.478 166.156C264.618 166.735 257.118 116.708 258.463 126.221C260.158 138.156 240.538 126.059 230.855 129.638Z" fill="#2F2E41"/>
<path d="M230.855 129.638C228.256 130.628 225.602 131.467 222.907 132.151C219.346 133.019 217.336 133.421 213.899 132.088C213.778 132.041 213.663 131.995 213.554 131.949C207.04 129.179 201.472 124.576 197.527 118.699C193.582 112.821 191.431 105.924 191.335 98.8464C191.318 98.6036 191.318 98.3483 191.318 98.0993C191.314 96.8997 191.372 95.7008 191.49 94.507C191.64 92.8809 191.9 91.2668 192.268 89.6758L192.234 89.6695C189.451 86.8243 188.381 82.927 188.736 79.011C188.979 76.3561 189.821 73.791 191.2 71.509C192.578 69.2271 194.457 67.2877 196.694 65.8372C200.199 63.6331 204.152 62.238 208.264 61.753C209.369 61.6257 210.479 61.5613 211.591 61.56H222.033C224.19 61.0551 226.381 60.7097 228.589 60.5265H228.606C249.623 58.7833 266.198 72.7167 264.652 89.6695C264.64 89.6882 264.623 89.7069 264.612 89.7256C264.165 90.454 263.77 91.145 263.421 91.805C263.083 92.4213 262.797 93.0128 262.551 93.5731C260.633 97.9063 269.747 165.135 266.478 166.156C264.618 166.735 257.118 116.708 258.463 126.221C260.158 138.156 240.538 126.059 230.855 129.638Z" fill="#2F2E41"/>
<path d="M230.855 129.638C228.256 130.628 225.602 131.467 222.907 132.151C219.346 133.019 217.336 133.421 213.899 132.088C213.778 132.041 213.663 131.995 213.554 131.949C207.04 129.179 201.472 124.576 197.527 118.699C193.582 112.821 191.431 105.924 191.335 98.8464C191.318 98.6036 191.318 98.3483 191.318 98.0993C191.314 96.8997 191.372 95.7008 191.49 94.507C191.64 92.8809 191.9 91.2668 192.268 89.6758L192.234 89.6695C189.451 86.8243 188.381 82.927 188.736 79.011C188.979 76.3561 189.821 73.791 191.2 71.509C192.578 69.2271 194.457 67.2877 196.694 65.8372C200.199 63.6331 204.152 62.238 208.264 61.753C209.369 61.6257 210.479 61.5613 211.591 61.56H222.033C224.19 61.0551 226.381 60.7097 228.589 60.5265H228.606C249.623 58.7833 266.198 72.7167 264.652 89.6695C264.64 89.6882 264.623 89.7069 264.612 89.7256C264.165 90.454 263.77 91.145 263.421 91.805C263.083 92.4213 262.797 93.0128 262.551 93.5731C260.633 97.9063 269.747 165.135 266.478 166.156C264.618 166.735 257.118 116.708 258.463 126.221C260.158 138.156 240.538 126.059 230.855 129.638Z" fill="url(#paint3_linear_515_271)" fill-opacity="0.8" style="mix-blend-mode:overlay"/>
<path d="M262.518 251.168L291.652 313.235L179.58 301.885L202.975 242.301L262.518 251.168Z" fill="#FFDBC4"/>
<path d="M321.002 375.61C301.514 382.097 280.976 384.848 260.467 383.718L251.549 369.256C251.549 369.256 251.175 374.642 250.618 382.877C240.855 381.745 231.22 379.702 221.838 376.775C204.046 371.211 187.368 362.591 170.462 354.641C167.037 334.228 165.752 302.752 184.684 284.428L286.582 303.1C286.582 303.1 302.932 315.328 298.558 319.708C294.184 324.082 293.507 323.405 296.38 326.278C299.254 329.152 305.463 332.994 305.527 335.507C305.552 336.488 312.521 354.28 321.002 375.61Z" fill="#413F59"/>
<path d="M321.002 375.61C301.514 382.097 280.976 384.848 260.467 383.718L251.549 369.256C251.549 369.256 251.175 374.642 250.618 382.877C240.855 381.745 231.22 379.702 221.838 376.775C204.046 371.211 187.368 362.591 170.462 354.641C167.037 334.228 165.752 302.752 184.684 284.428L286.582 303.1C286.582 303.1 302.932 315.328 298.558 319.708C294.184 324.082 293.507 323.405 296.38 326.278C299.254 329.152 305.463 332.994 305.527 335.507C305.552 336.488 312.521 354.28 321.002 375.61Z" fill="url(#paint4_linear_515_271)" fill-opacity="0.8" style="mix-blend-mode:overlay"/>
<path d="M261.085 144.98L254.26 147.683L290.668 218.791L366.039 270.166L376.904 251.803L319.53 202.247L296.561 158.195C293.328 151.995 287.913 147.213 281.361 144.773C274.809 142.332 267.585 142.406 261.085 144.98Z" fill="#74BBCA"/>
<path d="M261.085 144.98L254.26 147.683L290.668 218.791L366.039 270.166L376.904 251.803L319.53 202.247L296.561 158.195C293.328 151.995 287.913 147.213 281.361 144.773C274.809 142.332 267.585 142.406 261.085 144.98Z" fill="url(#paint5_linear_515_271)" fill-opacity="0.8" style="mix-blend-mode:overlay"/>
<path d="M244.723 131.232L220.104 132.95L204.192 148.326L198.62 149.32C193.611 150.213 189.103 152.914 185.953 156.909C182.802 160.904 181.227 165.917 181.526 170.996C182.672 190.417 185.239 219.434 190.603 228.849C198.921 243.446 205.791 238.866 198.921 243.446C192.051 248.027 187.438 244.428 190.603 251.666C193.768 258.905 186.325 268.189 186.325 268.189L183.363 271.152L186.505 272.44L286.635 285.469C286.635 285.469 277.977 246.541 283.392 236.979C288.807 227.416 301.935 198.51 290.218 187.199C290.218 187.199 292.233 156.181 278.762 146.884C272.158 142.327 259.056 141.072 259.056 141.072L244.723 131.232Z" fill="#74BBCA"/>
<path d="M244.723 131.232L220.104 132.95L204.192 148.326L198.62 149.32C193.611 150.213 189.103 152.914 185.953 156.909C182.802 160.904 181.227 165.917 181.526 170.996C182.672 190.417 185.239 219.434 190.603 228.849C198.921 243.446 205.791 238.866 198.921 243.446C192.051 248.027 187.438 244.428 190.603 251.666C193.768 258.905 186.325 268.189 186.325 268.189L183.363 271.152L186.505 272.44L286.635 285.469C286.635 285.469 277.977 246.541 283.392 236.979C288.807 227.416 301.935 198.51 290.218 187.199C290.218 187.199 292.233 156.181 278.762 146.884C272.158 142.327 259.056 141.072 259.056 141.072L244.723 131.232Z" fill="url(#paint6_linear_515_271)" fill-opacity="0.8" style="mix-blend-mode:overlay"/>
<path d="M393.751 291.003C392.103 290.951 390.486 290.541 389.013 289.803C387.539 289.065 386.243 288.015 385.215 286.726C384.187 285.438 383.451 283.942 383.058 282.341C382.665 280.74 382.625 279.073 382.94 277.455L335.971 245.645L341.575 230.491L397.084 268.679C399.769 269.411 402.091 271.103 403.611 273.433C405.131 275.763 405.744 278.57 405.333 281.322C404.922 284.074 403.516 286.579 401.381 288.363C399.247 290.148 396.532 291.087 393.751 291.003V291.003Z" fill="#FFDBC4"/>
<path d="M393.751 291.003C392.103 290.951 390.486 290.541 389.013 289.803C387.539 289.065 386.243 288.015 385.215 286.726C384.187 285.438 383.451 283.942 383.058 282.341C382.665 280.74 382.625 279.073 382.94 277.455L335.971 245.645L341.575 230.491L397.084 268.679C399.769 269.411 402.091 271.103 403.611 273.433C405.131 275.763 405.744 278.57 405.333 281.322C404.922 284.074 403.516 286.579 401.381 288.363C399.247 290.148 396.532 291.087 393.751 291.003V291.003Z" fill="url(#paint7_linear_515_271)" fill-opacity="0.8" style="mix-blend-mode:overlay"/>
<path d="M231.132 124.978C244.785 124.978 255.853 113.911 255.853 100.258C255.853 86.6053 244.785 75.5376 231.132 75.5376C217.48 75.5376 206.412 86.6053 206.412 100.258C206.412 113.911 217.48 124.978 231.132 124.978Z" fill="#FFDBC4"/>
<path d="M231.132 124.978C244.785 124.978 255.853 113.911 255.853 100.258C255.853 86.6053 244.785 75.5376 231.132 75.5376C217.48 75.5376 206.412 86.6053 206.412 100.258C206.412 113.911 217.48 124.978 231.132 124.978Z" fill="url(#paint8_radial_515_271)" fill-opacity="0.8" style="mix-blend-mode:overlay"/>
<path d="M252.628 89.8047C252.216 90.0222 251.81 90.2226 251.397 90.4229C250.968 90.629 250.539 90.8352 250.104 91.0298C241.831 94.7798 235.092 95.1978 231.004 89.8047C230.892 86.9673 230.254 84.1755 229.121 81.5718C229.321 84.4815 228.554 87.3758 226.939 89.8047H218.706C210.227 95.4325 205.876 100.602 211.762 119.078C212.145 120.291 214.773 163.414 215.523 166.728C202.687 161.805 191.615 109.528 191.334 95.7531C191.317 95.5299 191.317 95.2951 191.317 95.0661C191.314 93.9626 191.371 92.8598 191.489 91.7627C191.64 90.2648 191.9 88.7799 192.268 87.3199L192.233 87.3142C190.927 86.0656 189.931 84.5293 189.324 82.8276C188.716 81.1259 188.515 79.3059 188.735 77.5126C190.888 74.6932 193.553 72.3043 196.59 70.4706C199.352 69.1334 202.23 68.0525 205.189 67.2416C205.264 67.2244 205.327 67.2073 205.401 67.1901C206.306 66.9439 207.233 66.7206 208.161 66.5259C210.072 66.1251 212.004 65.8327 213.949 65.65C214.092 65.6443 214.229 65.6328 214.355 65.6328C215.133 65.6333 215.896 65.8429 216.565 66.2397C216.571 66.2397 216.571 66.2454 216.582 66.2454C217.225 66.6295 217.758 67.1725 218.13 67.8223C218.502 68.472 218.701 69.2066 218.706 69.9553H227.878C228.216 69.9553 228.554 69.9668 228.892 69.984C241.665 70.4935 251.93 75.9554 252.588 88.5108C252.617 88.9459 252.628 89.3695 252.628 89.8047Z" fill="#2F2E41"/>
<path d="M252.628 89.8047C252.216 90.0222 251.81 90.2226 251.397 90.4229C250.968 90.629 250.539 90.8352 250.104 91.0298C241.831 94.7798 235.092 95.1978 231.004 89.8047C230.892 86.9673 230.254 84.1755 229.121 81.5718C229.321 84.4815 228.554 87.3758 226.939 89.8047H218.706C210.227 95.4325 205.876 100.602 211.762 119.078C212.145 120.291 214.773 163.414 215.523 166.728C202.687 161.805 191.615 109.528 191.334 95.7531C191.317 95.5299 191.317 95.2951 191.317 95.0661C191.314 93.9626 191.371 92.8598 191.489 91.7627C191.64 90.2648 191.9 88.7799 192.268 87.3199L192.233 87.3142C190.927 86.0656 189.931 84.5293 189.324 82.8276C188.716 81.1259 188.515 79.3059 188.735 77.5126C190.888 74.6932 193.553 72.3043 196.59 70.4706C199.352 69.1334 202.23 68.0525 205.189 67.2416C205.264 67.2244 205.327 67.2073 205.401 67.1901C206.306 66.9439 207.233 66.7206 208.161 66.5259C210.072 66.1251 212.004 65.8327 213.949 65.65C214.092 65.6443 214.229 65.6328 214.355 65.6328C215.133 65.6333 215.896 65.8429 216.565 66.2397C216.571 66.2397 216.571 66.2454 216.582 66.2454C217.225 66.6295 217.758 67.1725 218.13 67.8223C218.502 68.472 218.701 69.2066 218.706 69.9553H227.878C228.216 69.9553 228.554 69.9668 228.892 69.984C241.665 70.4935 251.93 75.9554 252.588 88.5108C252.617 88.9459 252.628 89.3695 252.628 89.8047Z" fill="#2F2E41"/>
<path d="M252.628 89.8047C252.216 90.0222 251.81 90.2226 251.397 90.4229C250.968 90.629 250.539 90.8352 250.104 91.0298C241.831 94.7798 235.092 95.1978 231.004 89.8047C230.892 86.9673 230.254 84.1755 229.121 81.5718C229.321 84.4815 228.554 87.3758 226.939 89.8047H218.706C210.227 95.4325 205.876 100.602 211.762 119.078C212.145 120.291 214.773 163.414 215.523 166.728C202.687 161.805 191.615 109.528 191.334 95.7531C191.317 95.5299 191.317 95.2951 191.317 95.0661C191.314 93.9626 191.371 92.8598 191.489 91.7627C191.64 90.2648 191.9 88.7799 192.268 87.3199L192.233 87.3142C190.927 86.0656 189.931 84.5293 189.324 82.8276C188.716 81.1259 188.515 79.3059 188.735 77.5126C190.888 74.6932 193.553 72.3043 196.59 70.4706C199.352 69.1334 202.23 68.0525 205.189 67.2416C205.264 67.2244 205.327 67.2073 205.401 67.1901C206.306 66.9439 207.233 66.7206 208.161 66.5259C210.072 66.1251 212.004 65.8327 213.949 65.65C214.092 65.6443 214.229 65.6328 214.355 65.6328C215.133 65.6333 215.896 65.8429 216.565 66.2397C216.571 66.2397 216.571 66.2454 216.582 66.2454C217.225 66.6295 217.758 67.1725 218.13 67.8223C218.502 68.472 218.701 69.2066 218.706 69.9553H227.878C228.216 69.9553 228.554 69.9668 228.892 69.984C241.665 70.4935 251.93 75.9554 252.588 88.5108C252.617 88.9459 252.628 89.3695 252.628 89.8047Z" fill="url(#paint9_linear_515_271)" fill-opacity="0.8" style="mix-blend-mode:overlay"/>
<path d="M198.405 90.7984C207.399 90.7984 214.691 83.5069 214.691 74.5125C214.691 65.518 207.399 58.2266 198.405 58.2266C189.411 58.2266 182.119 65.518 182.119 74.5125C182.119 83.5069 189.411 90.7984 198.405 90.7984Z" fill="#2F2E41"/>
<path d="M198.405 90.7984C207.399 90.7984 214.691 83.5069 214.691 74.5125C214.691 65.518 207.399 58.2266 198.405 58.2266C189.411 58.2266 182.119 65.518 182.119 74.5125C182.119 83.5069 189.411 90.7984 198.405 90.7984Z" fill="#2F2E41"/>
<path d="M198.405 90.7984C207.399 90.7984 214.691 83.5069 214.691 74.5125C214.691 65.518 207.399 58.2266 198.405 58.2266C189.411 58.2266 182.119 65.518 182.119 74.5125C182.119 83.5069 189.411 90.7984 198.405 90.7984Z" fill="url(#paint10_linear_515_271)" fill-opacity="0.8" style="mix-blend-mode:overlay"/>
<path d="M220.762 66.98C218.912 75.7821 209.784 81.0465 201.051 78.893C196.857 77.8589 193.246 75.2012 191.012 71.5046C188.778 67.808 188.104 63.3752 189.138 59.1816C191.291 50.4487 201.89 52.9663 208.849 47.2685C218.694 39.2082 223.257 55.1096 220.762 66.98Z" fill="#2F2E41"/>
<path d="M220.762 66.98C218.912 75.7821 209.784 81.0465 201.051 78.893C196.857 77.8589 193.246 75.2012 191.012 71.5046C188.778 67.808 188.104 63.3752 189.138 59.1816C191.291 50.4487 201.89 52.9663 208.849 47.2685C218.694 39.2082 223.257 55.1096 220.762 66.98Z" fill="#2F2E41"/>
<path d="M220.762 66.98C218.912 75.7821 209.784 81.0465 201.051 78.893C196.857 77.8589 193.246 75.2012 191.012 71.5046C188.778 67.808 188.104 63.3752 189.138 59.1816C191.291 50.4487 201.89 52.9663 208.849 47.2685C218.694 39.2082 223.257 55.1096 220.762 66.98Z" fill="url(#paint11_linear_515_271)" fill-opacity="0.8" style="mix-blend-mode:overlay"/>
<path d="M309.943 142.004L407.556 233.219C409.245 234.803 410.238 236.992 410.316 239.307C410.395 241.621 409.552 243.873 407.974 245.567C396.341 294.327 345.284 337.18 283.783 378.467C282.2 380.158 280.011 381.151 277.696 381.23C275.381 381.308 273.129 380.465 271.435 378.885L173.823 287.669C172.132 286.086 171.138 283.897 171.06 281.582C170.982 279.267 171.825 277.015 173.405 275.321C224.134 235.088 266.252 191.103 297.596 142.422C299.179 140.732 301.369 139.74 303.683 139.661C305.998 139.583 308.249 140.425 309.943 142.004V142.004Z" fill="#D6D6D6"/>
<path d="M309.943 142.004L407.556 233.219C409.245 234.803 410.238 236.992 410.316 239.307C410.395 241.621 409.552 243.873 407.974 245.567C396.341 294.327 345.284 337.18 283.783 378.467C282.2 380.158 280.011 381.151 277.696 381.23C275.381 381.308 273.129 380.465 271.435 378.885L173.823 287.669C172.132 286.086 171.138 283.897 171.06 281.582C170.982 279.267 171.825 277.015 173.405 275.321C224.134 235.088 266.252 191.103 297.596 142.422C299.179 140.732 301.369 139.74 303.683 139.661C305.998 139.583 308.249 140.425 309.943 142.004V142.004Z" fill="url(#paint12_linear_515_271)" fill-opacity="0.8" style="mix-blend-mode:overlay"/>
<path d="M179.148 284.403L208.86 312.168C226.992 329.012 251.052 337.997 275.786 337.159C300.52 336.321 323.918 325.729 340.868 307.696L401.604 242.701C402.503 241.738 402.984 240.457 402.941 239.14C402.897 237.823 402.333 236.577 401.372 235.675L307.049 147.533C306.085 146.635 304.803 146.156 303.486 146.202C302.169 146.248 300.923 146.815 300.023 147.777C272.123 198.551 230.776 241.16 178.911 277.383C178.013 278.346 177.533 279.626 177.578 280.942C177.623 282.258 178.187 283.503 179.148 284.403Z" fill="white"/>
<path d="M320.521 198.536L339.871 216.618C340.384 217.097 341.067 217.352 341.768 217.328C342.47 217.304 343.133 217.002 343.612 216.49C344.092 215.977 344.348 215.294 344.324 214.593C344.301 213.891 344 213.228 343.487 212.748L324.137 194.666C323.883 194.428 323.585 194.242 323.259 194.12C322.933 193.998 322.586 193.941 322.239 193.952C321.891 193.964 321.549 194.044 321.232 194.188C320.915 194.332 320.63 194.537 320.392 194.791C320.154 195.045 319.969 195.344 319.847 195.67C319.725 195.995 319.668 196.342 319.68 196.69C319.692 197.038 319.773 197.38 319.917 197.697C320.061 198.013 320.266 198.298 320.521 198.536L320.521 198.536Z" fill="#CCCCCC"/>
<path d="M287.919 188.001L330.413 227.711C330.668 227.949 330.966 228.134 331.292 228.256C331.617 228.378 331.964 228.435 332.311 228.423C332.659 228.412 333.001 228.331 333.317 228.188C333.634 228.044 333.919 227.839 334.157 227.585C334.394 227.331 334.579 227.032 334.701 226.707C334.824 226.381 334.88 226.034 334.869 225.687C334.857 225.339 334.777 224.997 334.633 224.681C334.489 224.364 334.284 224.079 334.03 223.841L291.535 184.131C291.281 183.893 290.983 183.708 290.657 183.585C290.331 183.462 289.984 183.405 289.636 183.417C289.288 183.428 288.946 183.508 288.629 183.652C288.312 183.796 288.027 184.001 287.789 184.255C287.551 184.51 287.366 184.808 287.244 185.134C287.122 185.46 287.065 185.807 287.077 186.155C287.089 186.503 287.17 186.845 287.314 187.162C287.459 187.479 287.664 187.764 287.919 188.002L287.919 188.001Z" fill="#CCCCCC"/>
<g filter="url(#filter1_i_515_271)">
<path d="M360.124 254.028C350.608 255.53 341.677 249.032 340.175 239.516C338.674 230 345.171 221.069 354.687 219.567C364.204 218.066 373.135 224.563 374.637 234.079C376.138 243.595 369.641 252.527 360.124 254.028Z" fill="#74BBCA"/>
<path d="M360.124 254.028C350.608 255.53 341.677 249.032 340.175 239.516C338.674 230 345.171 221.069 354.687 219.567C364.204 218.066 373.135 224.563 374.637 234.079C376.138 243.595 369.641 252.527 360.124 254.028Z" fill="#FFD98E"/>
<path d="M360.124 254.028C350.608 255.53 341.677 249.032 340.175 239.516C338.674 230 345.171 221.069 354.687 219.567C364.204 218.066 373.135 224.563 374.637 234.079C376.138 243.595 369.641 252.527 360.124 254.028Z" fill="url(#paint13_radial_515_271)" fill-opacity="0.8" style="mix-blend-mode:overlay"/>
</g>
<path d="M291.685 224.092L343.877 272.864C344.403 273.254 345.054 273.437 345.706 273.377C346.358 273.318 346.965 273.021 347.412 272.543C347.859 272.064 348.114 271.438 348.129 270.784C348.144 270.129 347.918 269.492 347.493 268.994L295.301 220.222C294.775 219.832 294.125 219.65 293.473 219.709C292.821 219.768 292.213 220.065 291.766 220.543C291.319 221.022 291.064 221.648 291.049 222.302C291.034 222.957 291.26 223.594 291.685 224.092Z" fill="#CCCCCC"/>
<path d="M261.518 215.836L334.365 283.91C334.891 284.3 335.542 284.482 336.194 284.423C336.846 284.364 337.454 284.067 337.901 283.589C338.348 283.11 338.603 282.484 338.618 281.83C338.633 281.175 338.406 280.538 337.982 280.04L265.135 211.966C264.609 211.576 263.958 211.394 263.306 211.453C262.654 211.512 262.047 211.809 261.6 212.288C261.153 212.766 260.897 213.392 260.882 214.046C260.867 214.701 261.094 215.338 261.518 215.836V215.836Z" fill="#CCCCCC"/>
<path d="M261.518 215.836L334.365 283.91C334.891 284.3 335.542 284.482 336.194 284.423C336.846 284.364 337.454 284.067 337.901 283.589C338.348 283.11 338.603 282.484 338.618 281.83C338.633 281.175 338.406 280.538 337.982 280.04L265.135 211.966C264.609 211.576 263.958 211.394 263.306 211.453C262.654 211.512 262.047 211.809 261.6 212.288C261.153 212.766 260.897 213.392 260.882 214.046C260.867 214.701 261.094 215.338 261.518 215.836V215.836Z" fill="white"/>
<path d="M261.518 215.836L334.365 283.91C334.891 284.3 335.542 284.482 336.194 284.423C336.846 284.364 337.454 284.067 337.901 283.589C338.348 283.11 338.603 282.484 338.618 281.83C338.633 281.175 338.406 280.538 337.982 280.04L265.135 211.966C264.609 211.576 263.958 211.394 263.306 211.453C262.654 211.512 262.047 211.809 261.6 212.288C261.153 212.766 260.897 213.392 260.882 214.046C260.867 214.701 261.094 215.338 261.518 215.836V215.836Z" fill="#F79C91" fill-opacity="0.6"/>
<path d="M261.518 215.836L334.365 283.91C334.891 284.3 335.542 284.482 336.194 284.423C336.846 284.364 337.454 284.067 337.901 283.589C338.348 283.11 338.603 282.484 338.618 281.83C338.633 281.175 338.406 280.538 337.982 280.04L265.135 211.966C264.609 211.576 263.958 211.394 263.306 211.453C262.654 211.512 262.047 211.809 261.6 212.288C261.153 212.766 260.897 213.392 260.882 214.046C260.867 214.701 261.094 215.338 261.518 215.836V215.836Z" fill="url(#paint14_linear_515_271)" style="mix-blend-mode:overlay"/>
<path d="M267.171 250.323L319.363 299.094C319.889 299.484 320.54 299.667 321.192 299.608C321.844 299.549 322.451 299.251 322.898 298.773C323.345 298.295 323.601 297.669 323.616 297.014C323.631 296.36 323.404 295.723 322.98 295.224L270.788 246.453C270.262 246.063 269.611 245.88 268.959 245.939C268.307 245.998 267.7 246.296 267.253 246.774C266.806 247.252 266.55 247.878 266.535 248.533C266.52 249.187 266.747 249.824 267.171 250.323Z" fill="#CCCCCC"/>
<path d="M210.808 266.245L263 315.017C263.526 315.407 264.177 315.589 264.829 315.53C265.481 315.471 266.088 315.174 266.535 314.696C266.982 314.217 267.237 313.591 267.252 312.937C267.267 312.282 267.041 311.645 266.616 311.147L214.424 262.375C213.899 261.985 213.248 261.802 212.596 261.862C211.944 261.921 211.336 262.218 210.889 262.696C210.442 263.175 210.187 263.801 210.172 264.455C210.157 265.11 210.383 265.747 210.808 266.245Z" fill="#74BBCA"/>
<path d="M237.005 242.067L309.852 310.14C310.378 310.53 311.029 310.713 311.681 310.654C312.333 310.594 312.94 310.297 313.387 309.819C313.834 309.341 314.089 308.715 314.104 308.06C314.119 307.406 313.893 306.769 313.468 306.27L240.621 238.197C240.095 237.807 239.444 237.624 238.792 237.683C238.14 237.743 237.533 238.04 237.086 238.518C236.639 238.996 236.384 239.622 236.369 240.277C236.354 240.931 236.58 241.568 237.005 242.067V242.067Z" fill="#CCCCCC"/>
<path d="M237.005 242.067L309.852 310.14C310.378 310.53 311.029 310.713 311.681 310.654C312.333 310.594 312.94 310.297 313.387 309.819C313.834 309.341 314.089 308.715 314.104 308.06C314.119 307.406 313.893 306.769 313.468 306.27L240.621 238.197C240.095 237.807 239.444 237.624 238.792 237.683C238.14 237.743 237.533 238.04 237.086 238.518C236.639 238.996 236.384 239.622 236.369 240.277C236.354 240.931 236.58 241.568 237.005 242.067V242.067Z" fill="white"/>
<path d="M237.005 242.067L309.852 310.14C310.378 310.53 311.029 310.713 311.681 310.654C312.333 310.594 312.94 310.297 313.387 309.819C313.834 309.341 314.089 308.715 314.104 308.06C314.119 307.406 313.893 306.769 313.468 306.27L240.621 238.197C240.095 237.807 239.444 237.624 238.792 237.683C238.14 237.743 237.533 238.04 237.086 238.518C236.639 238.996 236.384 239.622 236.369 240.277C236.354 240.931 236.58 241.568 237.005 242.067V242.067Z" fill="#F79C91" fill-opacity="0.6"/>
<path d="M237.005 242.067L309.852 310.14C310.378 310.53 311.029 310.713 311.681 310.654C312.333 310.594 312.94 310.297 313.387 309.819C313.834 309.341 314.089 308.715 314.104 308.06C314.119 307.406 313.893 306.769 313.468 306.27L240.621 238.197C240.095 237.807 239.444 237.624 238.792 237.683C238.14 237.743 237.533 238.04 237.086 238.518C236.639 238.996 236.384 239.622 236.369 240.277C236.354 240.931 236.58 241.568 237.005 242.067V242.067Z" fill="url(#paint15_linear_515_271)" style="mix-blend-mode:overlay"/>
<path d="M315.215 358.553C319.195 361.945 323.981 364.254 329.113 365.259C334.244 366.264 339.548 365.93 344.513 364.29C357.229 359.927 365.361 347.8 372.553 336.44C379.643 325.241 386.734 314.041 393.824 302.842L374.617 307.446C360.804 310.757 346.652 314.215 334.899 322.19C323.145 330.166 314.12 343.758 315.654 357.879" fill="#ADD9AD"/>
<path d="M315.215 358.553C319.195 361.945 323.981 364.254 329.113 365.259C334.244 366.264 339.548 365.93 344.513 364.29C357.229 359.927 365.361 347.8 372.553 336.44C379.643 325.241 386.734 314.041 393.824 302.842L374.617 307.446C360.804 310.757 346.652 314.215 334.899 322.19C323.145 330.166 314.12 343.758 315.654 357.879" fill="url(#paint16_linear_515_271)" fill-opacity="0.8" style="mix-blend-mode:overlay"/>
<path d="M299.538 403.114C302.314 391.33 305.101 379.386 310.536 368.489C315.364 358.812 322.209 350.181 331.548 344.54C336.502 341.553 341.939 339.454 347.615 338.336C349.095 338.043 349.464 340.353 347.99 340.644C338.164 342.594 329.211 347.614 322.421 354.98C314.897 363.182 310.228 373.484 306.927 384.004C304.931 390.366 303.394 396.858 301.866 403.344C301.825 403.648 301.671 403.926 301.433 404.121C301.196 404.315 300.893 404.412 300.587 404.393C300.279 404.36 299.996 404.208 299.8 403.968C299.604 403.729 299.51 403.422 299.538 403.114V403.114Z" fill="white" style="mix-blend-mode:color-burn"/>
<path d="M299.538 403.114C302.314 391.33 305.101 379.386 310.536 368.489C315.364 358.812 322.209 350.181 331.548 344.54C336.502 341.553 341.939 339.454 347.615 338.336C349.095 338.043 349.464 340.353 347.99 340.644C338.164 342.594 329.211 347.614 322.421 354.98C314.897 363.182 310.228 373.484 306.927 384.004C304.931 390.366 303.394 396.858 301.866 403.344C301.825 403.648 301.671 403.926 301.433 404.121C301.196 404.315 300.893 404.412 300.587 404.393C300.279 404.36 299.996 404.208 299.8 403.968C299.604 403.729 299.51 403.422 299.538 403.114V403.114Z" fill="#5ABA47" fill-opacity="0.4"/>
<path d="M321.861 378.21C322.318 382.032 323.752 385.672 326.024 388.778C328.296 391.885 331.33 394.355 334.833 395.949C343.888 399.943 354.343 397.45 363.907 394.902L392.193 387.366L379.508 380.259C370.387 375.148 361.009 369.946 350.67 368.386C340.331 366.826 328.661 369.664 322.435 378.065" fill="#ADD9AD"/>
<path d="M321.861 378.21C322.318 382.032 323.752 385.672 326.024 388.778C328.296 391.885 331.33 394.355 334.833 395.949C343.888 399.943 354.343 397.45 363.907 394.902L392.193 387.366L379.508 380.259C370.387 375.148 361.009 369.946 350.67 368.386C340.331 366.826 328.661 369.664 322.435 378.065" fill="url(#paint17_linear_515_271)" fill-opacity="0.8" style="mix-blend-mode:overlay"/>
<path d="M290.951 394.209C304.304 385.201 319.488 375.361 336.409 378.239C341.112 379.043 345.618 380.739 349.684 383.236C350.966 384.02 349.601 385.919 348.32 385.136C341.487 380.987 333.434 379.318 325.515 380.411C317.905 381.443 310.799 384.611 304.211 388.443C300.176 390.79 296.305 393.405 292.437 396.015C291.201 396.848 289.7 395.052 290.951 394.209V394.209Z" fill="white" style="mix-blend-mode:color-burn"/>
<path d="M290.951 394.209C304.304 385.201 319.488 375.361 336.409 378.239C341.112 379.043 345.618 380.739 349.684 383.236C350.966 384.02 349.601 385.919 348.32 385.136C341.487 380.987 333.434 379.318 325.515 380.411C317.905 381.443 310.799 384.611 304.211 388.443C300.176 390.79 296.305 393.405 292.437 396.015C291.201 396.848 289.7 395.052 290.951 394.209V394.209Z" fill="#5ABA47" fill-opacity="0.4"/>
<path d="M276.85 408.593C301.908 408.593 322.223 388.279 322.223 363.22C322.223 338.161 301.908 317.847 276.85 317.847C251.791 317.847 231.477 338.161 231.477 363.22C231.477 388.279 251.791 408.593 276.85 408.593Z" fill="white"/>
<path d="M276.85 409.226C267.751 409.226 258.856 406.528 251.29 401.472C243.725 396.417 237.828 389.232 234.346 380.826C230.864 372.419 229.953 363.169 231.728 354.245C233.503 345.32 237.884 337.123 244.318 330.689C250.753 324.255 258.95 319.873 267.874 318.098C276.798 316.323 286.049 317.234 294.455 320.716C302.862 324.198 310.047 330.094 315.102 337.66C320.157 345.226 322.856 354.12 322.856 363.22C322.842 375.417 317.991 387.111 309.366 395.736C300.741 404.36 289.047 409.212 276.85 409.226V409.226ZM276.85 318.48C268.001 318.48 259.351 321.104 251.993 326.02C244.636 330.936 238.902 337.923 235.515 346.099C232.129 354.274 231.243 363.27 232.969 371.948C234.696 380.627 238.957 388.599 245.214 394.856C251.471 401.113 259.443 405.374 268.122 407.1C276.8 408.827 285.796 407.941 293.971 404.554C302.146 401.168 309.134 395.433 314.05 388.076C318.966 380.718 321.59 372.068 321.59 363.22C321.576 351.358 316.858 339.986 308.471 331.598C300.083 323.211 288.711 318.493 276.85 318.48V318.48Z" fill="#5ABA47"/>
<path d="M270.66 386.834C269.877 386.834 269.104 386.652 268.403 386.301C267.702 385.951 267.093 385.442 266.623 384.815L254.244 368.31C253.846 367.78 253.556 367.177 253.391 366.534C253.226 365.892 253.189 365.223 253.283 364.567C253.376 363.91 253.598 363.279 253.936 362.708C254.274 362.137 254.721 361.639 255.251 361.241C255.782 360.843 256.386 360.554 257.028 360.389C257.67 360.225 258.339 360.189 258.996 360.283C259.652 360.377 260.283 360.599 260.854 360.938C261.424 361.276 261.922 361.723 262.32 362.254L270.418 373.051L291.218 341.852C291.586 341.301 292.058 340.827 292.609 340.458C293.16 340.089 293.778 339.832 294.428 339.702C295.077 339.573 295.747 339.572 296.397 339.7C297.047 339.829 297.666 340.085 298.217 340.452C298.769 340.82 299.242 341.293 299.611 341.843C299.98 342.394 300.237 343.012 300.367 343.662C300.497 344.312 300.497 344.981 300.369 345.631C300.24 346.281 299.985 346.9 299.617 347.451L274.86 384.587C274.412 385.258 273.81 385.813 273.104 386.204C272.397 386.594 271.607 386.81 270.801 386.833C270.754 386.834 270.707 386.834 270.66 386.834Z" fill="#5ABA47"/>
<path d="M437.101 141.898C439.612 141.387 441.36 139.557 441.004 137.81C440.649 136.062 438.324 135.06 435.813 135.572C433.302 136.083 431.554 137.913 431.909 139.66C432.265 141.408 434.589 142.41 437.101 141.898Z" fill="#FFDBC4"/>
<path d="M464.515 128.906C467.026 128.395 468.774 126.564 468.418 124.817C468.063 123.07 465.738 122.068 463.227 122.579C460.716 123.09 458.968 124.921 459.324 126.668C459.679 128.415 462.003 129.417 464.515 128.906Z" fill="#3F3D56"/>
<path d="M421.046 121.693C423.557 121.182 425.305 119.351 424.949 117.604C424.594 115.857 422.27 114.855 419.758 115.366C417.247 115.877 415.499 117.708 415.855 119.455C416.21 121.202 418.535 122.204 421.046 121.693Z" fill="#74BBCA"/>
<path d="M408.259 116.065C409.322 115.692 409.749 114.15 409.212 112.622C408.676 111.094 407.379 110.157 406.316 110.531C405.253 110.904 404.826 112.445 405.362 113.974C405.899 115.502 407.196 116.438 408.259 116.065Z" fill="#E6E6E6"/>
<path d="M397.761 100.021C398.824 99.6472 399.251 98.1056 398.714 96.5774C398.178 95.0491 396.881 94.1128 395.818 94.4862C394.754 94.8595 394.328 96.401 394.864 97.9293C395.401 99.4576 396.698 100.394 397.761 100.021Z" fill="#F79C91"/>
<path d="M441.429 119.197C442.492 118.824 442.919 117.282 442.382 115.754C441.846 114.226 440.549 113.29 439.486 113.663C438.422 114.036 437.996 115.578 438.532 117.106C439.069 118.634 440.366 119.571 441.429 119.197Z" fill="#E6E6E6"/>
<path d="M430.165 130.992C431.228 130.619 431.655 129.077 431.119 127.549C430.582 126.021 429.285 125.084 428.222 125.458C427.159 125.831 426.732 127.373 427.269 128.901C427.805 130.429 429.102 131.366 430.165 130.992Z" fill="#FFD98E"/>
<path d="M453.837 136.788C454.9 136.415 455.327 134.873 454.79 133.345C454.254 131.817 452.957 130.88 451.894 131.254C450.831 131.627 450.404 133.169 450.94 134.697C451.477 136.225 452.774 137.161 453.837 136.788Z" fill="#484848"/>
<path d="M303.961 23.6211C304.197 21.8538 302.328 20.1463 299.788 19.8072C297.248 19.468 294.997 20.6257 294.761 22.3929C294.525 24.1602 296.393 25.8677 298.934 26.2068C301.474 26.546 303.725 25.3883 303.961 23.6211Z" fill="white"/>
<path d="M273.801 26.9228C274.036 25.1556 272.168 23.448 269.628 23.1089C267.088 22.7697 264.837 23.9274 264.601 25.6946C264.365 27.4619 266.233 29.1695 268.774 29.5086C271.314 29.8478 273.565 28.69 273.801 26.9228Z" fill="#3F3D56"/>
<path d="M312.517 47.9682C312.753 46.201 310.885 44.4935 308.345 44.1543C305.804 43.8152 303.554 44.9729 303.318 46.7401C303.082 48.5073 304.95 50.2149 307.49 50.554C310.031 50.8932 312.281 49.7355 312.517 47.9682Z" fill="#F79C91"/>
<path d="M320.636 56.5813C320.63 54.9615 319.711 53.6523 318.584 53.6571C317.457 53.6618 316.549 54.9787 316.556 56.5984C316.563 58.2182 317.482 59.5274 318.609 59.5227C319.735 59.5179 320.643 58.201 320.636 56.5813Z" fill="#E6E6E6"/>
<path d="M325.302 75.1794C325.296 73.5597 324.377 72.2505 323.25 72.2552C322.123 72.2599 321.215 73.5768 321.222 75.1966C321.229 76.8163 322.148 78.1256 323.275 78.1208C324.401 78.1161 325.309 76.7992 325.302 75.1794Z" fill="#5ABA47"/>
<path d="M290.318 42.7634C290.311 41.1437 289.392 39.8345 288.266 39.8392C287.139 39.8439 286.231 41.1608 286.238 42.7806C286.244 44.4003 287.163 45.7095 288.29 45.7048C289.417 45.7001 290.325 44.3832 290.318 42.7634Z" fill="#E6E6E6"/>
<path d="M304.824 35.3069C304.817 33.6871 303.898 32.3779 302.771 32.3826C301.645 32.3874 300.737 33.7043 300.744 35.324C300.75 36.9438 301.669 38.253 302.796 38.2483C303.923 38.2435 304.831 36.9266 304.824 35.3069Z" fill="#74BBCA"/>
<path d="M284.353 22.0803C284.346 20.4606 283.427 19.1513 282.301 19.1561C281.174 19.1608 280.266 20.4777 280.273 22.0975C280.28 23.7172 281.199 25.0264 282.325 25.0217C283.452 25.017 284.36 23.7001 284.353 22.0803Z" fill="#484848"/>
<path d="M191.33 312.596C189.712 311.933 188.258 310.927 187.067 309.646C185.877 308.366 184.978 306.842 184.434 305.18C183.89 303.519 183.714 301.759 183.917 300.022C184.12 298.286 184.699 296.614 185.611 295.123L150.732 246.094L161.922 233.112L202.922 291.647C205.318 293.371 206.998 295.913 207.645 298.792C208.292 301.672 207.86 304.688 206.431 307.27C205.002 309.853 202.676 311.821 199.892 312.802C197.109 313.784 194.063 313.71 191.33 312.596H191.33Z" fill="#FFDBC4"/>
<path d="M191.33 312.596C189.712 311.933 188.258 310.927 187.067 309.646C185.877 308.366 184.978 306.842 184.434 305.18C183.89 303.519 183.714 301.759 183.917 300.022C184.12 298.286 184.699 296.614 185.611 295.123L150.732 246.094L161.922 233.112L202.922 291.647C205.318 293.371 206.998 295.913 207.645 298.792C208.292 301.672 207.86 304.688 206.431 307.27C205.002 309.853 202.676 311.821 199.892 312.802C197.109 313.784 194.063 313.71 191.33 312.596H191.33Z" fill="url(#paint18_linear_515_271)" fill-opacity="0.8" style="mix-blend-mode:overlay"/>
<path d="M192.132 157.225C190.367 156.186 188.29 155.811 186.274 156.166C184.258 156.521 182.434 157.583 181.13 159.162L134.004 225.07L177.677 287.099L194.767 268.743L168.183 226.969L203.513 193.33C206.417 186.97 206.86 179.759 204.758 173.091C202.656 166.423 198.158 160.77 192.132 157.225V157.225Z" fill="#74BBCA"/>
<path d="M192.132 157.225C190.367 156.186 188.29 155.811 186.274 156.166C184.258 156.521 182.434 157.583 181.13 159.162L134.004 225.07L177.677 287.099L194.767 268.743L168.183 226.969L203.513 193.33C206.417 186.97 206.86 179.759 204.758 173.091C202.656 166.423 198.158 160.77 192.132 157.225V157.225Z" fill="url(#paint19_linear_515_271)" fill-opacity="0.8" style="mix-blend-mode:overlay"/>
</g>
<defs>
<filter id="filter0_f_515_271" x="35.0863" y="-58.9137" width="530.591" height="514.039" filterUnits="userSpaceOnUse" color-interpolation-filters="sRGB">
<feFlood flood-opacity="0" result="BackgroundImageFix"/>
<feBlend mode="normal" in="SourceGraphic" in2="BackgroundImageFix" result="shape"/>
<feGaussianBlur stdDeviation="91.9569" result="effect1_foregroundBlur_515_271"/>
</filter>
<filter id="filter1_i_515_271" x="339.959" y="219.352" width="34.8926" height="37.4244" filterUnits="userSpaceOnUse" color-interpolation-filters="sRGB">
<feFlood flood-opacity="0" result="BackgroundImageFix"/>
<feBlend mode="normal" in="SourceGraphic" in2="BackgroundImageFix" result="shape"/>
<feColorMatrix in="SourceAlpha" type="matrix" values="0 0 0 0 0 0 0 0 0 0 0 0 0 0 0 0 0 0 127 0" result="hardAlpha"/>
<feOffset dy="2.5318"/>
<feGaussianBlur stdDeviation="3.16475"/>
<feComposite in2="hardAlpha" operator="arithmetic" k2="-1" k3="1"/>
<feColorMatrix type="matrix" values="0 0 0 0 1 0 0 0 0 0.741176 0 0 0 0 0.235294 0 0 0 0.8 0"/>
<feBlend mode="normal" in2="shape" result="effect1_innerShadow_515_271"/>
</filter>
<radialGradient id="paint0_angular_515_271" cx="0" cy="0" r="1" gradientUnits="userSpaceOnUse" gradientTransform="translate(300.382 198.106) rotate(90) scale(73.1057 81.3818)">
<stop stop-color="#6CC75A"/>
<stop offset="0.341667" stop-color="#FFD98E"/>
<stop offset="0.701042" stop-color="#F79C91"/>
<stop offset="1" stop-color="#74BBCA"/>
</radialGradient>
<linearGradient id="paint1_linear_515_271" x1="108.994" y1="228.755" x2="193.421" y2="269.549" gradientUnits="userSpaceOnUse">
<stop/>
<stop offset="1" stop-opacity="0"/>
</linearGradient>
<linearGradient id="paint2_linear_515_271" x1="90.2942" y1="318.617" x2="126.613" y2="368.765" gradientUnits="userSpaceOnUse">
<stop/>
<stop offset="1" stop-opacity="0"/>
</linearGradient>
<linearGradient id="paint3_linear_515_271" x1="271.036" y1="178.598" x2="170.107" y2="89.8217" gradientUnits="userSpaceOnUse">
<stop/>
<stop offset="1" stop-opacity="0"/>
</linearGradient>
<linearGradient id="paint4_linear_515_271" x1="240.973" y1="409.469" x2="225.211" y2="293.478" gradientUnits="userSpaceOnUse">
<stop/>
<stop offset="1" stop-opacity="0"/>
</linearGradient>
<linearGradient id="paint5_linear_515_271" x1="382.119" y1="264.363" x2="282.199" y2="207.42" gradientUnits="userSpaceOnUse">
<stop offset="0.0193445"/>
<stop offset="1" stop-opacity="0"/>
</linearGradient>
<linearGradient id="paint6_linear_515_271" x1="129.256" y1="271.009" x2="332.433" y2="187.776" gradientUnits="userSpaceOnUse">
<stop/>
<stop offset="1" stop-opacity="0"/>
</linearGradient>
<linearGradient id="paint7_linear_515_271" x1="353.614" y1="270.768" x2="368.909" y2="255.101" gradientUnits="userSpaceOnUse">
<stop/>
<stop offset="1" stop-opacity="0"/>
</linearGradient>
<radialGradient id="paint8_radial_515_271" cx="0" cy="0" r="1" gradientUnits="userSpaceOnUse" gradientTransform="translate(243.187 115.303) rotate(-139.97) scale(30.9984 26.982)">
<stop/>
<stop offset="1" stop-opacity="0"/>
</radialGradient>
<linearGradient id="paint9_linear_515_271" x1="252.675" y1="181.778" x2="161.033" y2="107.839" gradientUnits="userSpaceOnUse">
<stop/>
<stop offset="1" stop-opacity="0"/>
</linearGradient>
<linearGradient id="paint10_linear_515_271" x1="220.085" y1="83.972" x2="176.981" y2="81.1101" gradientUnits="userSpaceOnUse">
<stop/>
<stop offset="1" stop-opacity="0"/>
</linearGradient>
<linearGradient id="paint11_linear_515_271" x1="214.071" y1="84.2888" x2="214.189" y2="52.3299" gradientUnits="userSpaceOnUse">
<stop/>
<stop offset="1" stop-opacity="0"/>
</linearGradient>
<linearGradient id="paint12_linear_515_271" x1="254.58" y1="377.505" x2="308.064" y2="145.845" gradientUnits="userSpaceOnUse">
<stop/>
<stop offset="1" stop-opacity="0"/>
</linearGradient>
<radialGradient id="paint13_radial_515_271" cx="0" cy="0" r="1" gradientUnits="userSpaceOnUse" gradientTransform="translate(362.486 248.931) rotate(-115.616) scale(29.043)">
<stop/>
<stop offset="1" stop-opacity="0"/>
</radialGradient>
<linearGradient id="paint14_linear_515_271" x1="318.022" y1="259.041" x2="296.159" y2="248.205" gradientUnits="userSpaceOnUse">
<stop/>
<stop offset="1" stop-opacity="0"/>
</linearGradient>
<linearGradient id="paint15_linear_515_271" x1="293.508" y1="285.272" x2="271.645" y2="274.435" gradientUnits="userSpaceOnUse">
<stop/>
<stop offset="1" stop-opacity="0"/>
</linearGradient>
<linearGradient id="paint16_linear_515_271" x1="400.677" y1="297.865" x2="309.401" y2="319.329" gradientUnits="userSpaceOnUse">
<stop/>
<stop offset="1" stop-opacity="0"/>
</linearGradient>
<linearGradient id="paint17_linear_515_271" x1="398.878" y1="386.198" x2="348.833" y2="422.66" gradientUnits="userSpaceOnUse">
<stop/>
<stop offset="1" stop-opacity="0"/>
</linearGradient>
<linearGradient id="paint18_linear_515_271" x1="165.257" y1="286.607" x2="183.647" y2="274.93" gradientUnits="userSpaceOnUse">
<stop/>
<stop offset="1" stop-opacity="0"/>
</linearGradient>
<linearGradient id="paint19_linear_515_271" x1="153.854" y1="322.936" x2="161.814" y2="160.722" gradientUnits="userSpaceOnUse">
<stop/>
<stop offset="1" stop-opacity="0"/>
</linearGradient>
<clipPath id="clip0_515_271">
<rect width="555" height="416" fill="white"/>
</clipPath>
</defs>
</svg>
